ISO-10303-21;
HEADER;
FILE_DESCRIPTION(('Open CASCADE Model'),'2;1');
FILE_NAME('Open CASCADE Shape Model','2026-08-22T13:45:15',('Author'),(
    'Open CASCADE'),'Open CASCADE STEP processor 7.8','Open CASCADE 7.8'
  ,'Unknown');
FILE_SCHEMA(('AUTOMOTIVE_DESIGN { 1 0 10303 214 1 1 1 1 }'));
ENDSEC;
DATA;
#1 = APPLICATION_PROTOCOL_DEFINITION('international standard',
  'automotive_design',2000,#2);
#2 = APPLICATION_CONTEXT(
  'core data for automotive mechanical design processes');
#3 = SHAPE_DEFINITION_REPRESENTATION(#4,#10);
#4 = PRODUCT_DEFINITION_SHAPE('','',#5);
#5 = PRODUCT_DEFINITION('design','',#6,#9);
#6 = PRODUCT_DEFINITION_FORMATION('','',#7);
#7 = PRODUCT('M85049-90_N19P02','M85049-90_N19P02','',(#8));
#8 = PRODUCT_CONTEXT('',#2,'mechanical');
#9 = PRODUCT_DEFINITION_CONTEXT('part definition',#2,'design');
#10 = ADVANCED_BREP_SHAPE_REPRESENTATION('',(#11,#15),#516);
#11 = AXIS2_PLACEMENT_3D('',#12,#13,#14);
#12 = CARTESIAN_POINT('',(0.,0.,0.));
#13 = DIRECTION('',(0.,0.,1.));
#14 = DIRECTION('',(1.,0.,-0.));
#15 = MANIFOLD_SOLID_BREP('',#16);
#16 = CLOSED_SHELL('',(#17,#105,#140,#175,#179,#366,#422,#457,#512));
#17 = ADVANCED_FACE('',(#18),#31,.T.);
#18 = FACE_BOUND('',#19,.T.);
#19 = EDGE_LOOP('',(#20,#54,#77,#104));
#20 = ORIENTED_EDGE('',*,*,#21,.F.);
#21 = EDGE_CURVE('',#22,#22,#24,.T.);
#22 = VERTEX_POINT('',#23);
#23 = CARTESIAN_POINT('',(54.4322,47.625,4.728116362148E-15));
#24 = SURFACE_CURVE('',#25,(#30,#42),.PCURVE_S1.);
#25 = CIRCLE('',#26,19.304);
#26 = AXIS2_PLACEMENT_3D('',#27,#28,#29);
#27 = CARTESIAN_POINT('',(35.1282,47.625,0.));
#28 = DIRECTION('',(6.123233995737E-17,1.,0.));
#29 = DIRECTION('',(1.,-6.123233995737E-17,0.));
#30 = PCURVE('',#31,#36);
#31 = CYLINDRICAL_SURFACE('',#32,19.304);
#32 = AXIS2_PLACEMENT_3D('',#33,#34,#35);
#33 = CARTESIAN_POINT('',(35.1282,33.3375,0.));
#34 = DIRECTION('',(6.123233995737E-17,1.,0.));
#35 = DIRECTION('',(1.,-6.123233995737E-17,0.));
#36 = DEFINITIONAL_REPRESENTATION('',(#37),#41);
#37 = LINE('',#38,#39);
#38 = CARTESIAN_POINT('',(0.,14.2875));
#39 = VECTOR('',#40,1.);
#40 = DIRECTION('',(1.,0.));
#41 = ( GEOMETRIC_REPRESENTATION_CONTEXT(2) 
PARAMETRIC_REPRESENTATION_CONTEXT() REPRESENTATION_CONTEXT('2D SPACE',''
  ) );
#42 = PCURVE('',#43,#48);
#43 = PLANE('',#44);
#44 = AXIS2_PLACEMENT_3D('',#45,#46,#47);
#45 = CARTESIAN_POINT('',(35.1282,47.625,0.));
#46 = DIRECTION('',(6.123233995737E-17,1.,0.));
#47 = DIRECTION('',(1.,-6.123233995737E-17,0.));
#48 = DEFINITIONAL_REPRESENTATION('',(#49),#53);
#49 = CIRCLE('',#50,19.304);
#50 = AXIS2_PLACEMENT_2D('',#51,#52);
#51 = CARTESIAN_POINT('',(0.,0.));
#52 = DIRECTION('',(1.,0.));
#53 = ( GEOMETRIC_REPRESENTATION_CONTEXT(2) 
PARAMETRIC_REPRESENTATION_CONTEXT() REPRESENTATION_CONTEXT('2D SPACE',''
  ) );
#54 = ORIENTED_EDGE('',*,*,#55,.F.);
#55 = EDGE_CURVE('',#56,#22,#58,.T.);
#56 = VERTEX_POINT('',#57);
#57 = CARTESIAN_POINT('',(54.4322,33.3375,4.728116362148E-15));
#58 = SEAM_CURVE('',#59,(#63,#70),.PCURVE_S1.);
#59 = LINE('',#60,#61);
#60 = CARTESIAN_POINT('',(54.4322,33.3375,4.728116362148E-15));
#61 = VECTOR('',#62,1.);
#62 = DIRECTION('',(6.123233995737E-17,1.,6.016155777704E-49));
#63 = PCURVE('',#31,#64);
#64 = DEFINITIONAL_REPRESENTATION('',(#65),#69);
#65 = LINE('',#66,#67);
#66 = CARTESIAN_POINT('',(6.28318530718,-0.));
#67 = VECTOR('',#68,1.);
#68 = DIRECTION('',(0.,1.));
#69 = ( GEOMETRIC_REPRESENTATION_CONTEXT(2) 
PARAMETRIC_REPRESENTATION_CONTEXT() REPRESENTATION_CONTEXT('2D SPACE',''
  ) );
#70 = PCURVE('',#31,#71);
#71 = DEFINITIONAL_REPRESENTATION('',(#72),#76);
#72 = LINE('',#73,#74);
#73 = CARTESIAN_POINT('',(0.,-0.));
#74 = VECTOR('',#75,1.);
#75 = DIRECTION('',(0.,1.));
#76 = ( GEOMETRIC_REPRESENTATION_CONTEXT(2) 
PARAMETRIC_REPRESENTATION_CONTEXT() REPRESENTATION_CONTEXT('2D SPACE',''
  ) );
#77 = ORIENTED_EDGE('',*,*,#78,.T.);
#78 = EDGE_CURVE('',#56,#56,#79,.T.);
#79 = SURFACE_CURVE('',#80,(#85,#92),.PCURVE_S1.);
#80 = CIRCLE('',#81,19.304);
#81 = AXIS2_PLACEMENT_3D('',#82,#83,#84);
#82 = CARTESIAN_POINT('',(35.1282,33.3375,0.));
#83 = DIRECTION('',(6.123233995737E-17,1.,0.));
#84 = DIRECTION('',(1.,-6.123233995737E-17,0.));
#85 = PCURVE('',#31,#86);
#86 = DEFINITIONAL_REPRESENTATION('',(#87),#91);
#87 = LINE('',#88,#89);
#88 = CARTESIAN_POINT('',(0.,0.));
#89 = VECTOR('',#90,1.);
#90 = DIRECTION('',(1.,0.));
#91 = ( GEOMETRIC_REPRESENTATION_CONTEXT(2) 
PARAMETRIC_REPRESENTATION_CONTEXT() REPRESENTATION_CONTEXT('2D SPACE',''
  ) );
#92 = PCURVE('',#93,#98);
#93 = PLANE('',#94);
#94 = AXIS2_PLACEMENT_3D('',#95,#96,#97);
#95 = CARTESIAN_POINT('',(35.1282,33.3375,0.));
#96 = DIRECTION('',(6.123233995737E-17,1.,0.));
#97 = DIRECTION('',(1.,-6.123233995737E-17,0.));
#98 = DEFINITIONAL_REPRESENTATION('',(#99),#103);
#99 = CIRCLE('',#100,19.304);
#100 = AXIS2_PLACEMENT_2D('',#101,#102);
#101 = CARTESIAN_POINT('',(0.,0.));
#102 = DIRECTION('',(1.,0.));
#103 = ( GEOMETRIC_REPRESENTATION_CONTEXT(2) 
PARAMETRIC_REPRESENTATION_CONTEXT() REPRESENTATION_CONTEXT('2D SPACE',''
  ) );
#104 = ORIENTED_EDGE('',*,*,#55,.T.);
#105 = ADVANCED_FACE('',(#106,#109),#43,.T.);
#106 = FACE_BOUND('',#107,.T.);
#107 = EDGE_LOOP('',(#108));
#108 = ORIENTED_EDGE('',*,*,#21,.T.);
#109 = FACE_BOUND('',#110,.T.);
#110 = EDGE_LOOP('',(#111));
#111 = ORIENTED_EDGE('',*,*,#112,.F.);
#112 = EDGE_CURVE('',#113,#113,#115,.T.);
#113 = VERTEX_POINT('',#114);
#114 = CARTESIAN_POINT('',(49.76495,47.625,3.584969807484E-15));
#115 = SURFACE_CURVE('',#116,(#121,#128),.PCURVE_S1.);
#116 = CIRCLE('',#117,14.63675);
#117 = AXIS2_PLACEMENT_3D('',#118,#119,#120);
#118 = CARTESIAN_POINT('',(35.1282,47.625,0.));
#119 = DIRECTION('',(6.123233995737E-17,1.,0.));
#120 = DIRECTION('',(1.,-6.123233995737E-17,0.));
#121 = PCURVE('',#43,#122);
#122 = DEFINITIONAL_REPRESENTATION('',(#123),#127);
#123 = CIRCLE('',#124,14.63675);
#124 = AXIS2_PLACEMENT_2D('',#125,#126);
#125 = CARTESIAN_POINT('',(7.105427357601E-15,0.));
#126 = DIRECTION('',(1.,0.));
#127 = ( GEOMETRIC_REPRESENTATION_CONTEXT(2) 
PARAMETRIC_REPRESENTATION_CONTEXT() REPRESENTATION_CONTEXT('2D SPACE',''
  ) );
#128 = PCURVE('',#129,#134);
#129 = PLANE('',#130);
#130 = AXIS2_PLACEMENT_3D('',#131,#132,#133);
#131 = CARTESIAN_POINT('',(35.1282,47.625,0.));
#132 = DIRECTION('',(6.123233995737E-17,1.,0.));
#133 = DIRECTION('',(1.,-6.123233995737E-17,0.));
#134 = DEFINITIONAL_REPRESENTATION('',(#135),#139);
#135 = CIRCLE('',#136,14.63675);
#136 = AXIS2_PLACEMENT_2D('',#137,#138);
#137 = CARTESIAN_POINT('',(0.,0.));
#138 = DIRECTION('',(1.,0.));
#139 = ( GEOMETRIC_REPRESENTATION_CONTEXT(2) 
PARAMETRIC_REPRESENTATION_CONTEXT() REPRESENTATION_CONTEXT('2D SPACE',''
  ) );
#140 = ADVANCED_FACE('',(#141,#144),#93,.F.);
#141 = FACE_BOUND('',#142,.F.);
#142 = EDGE_LOOP('',(#143));
#143 = ORIENTED_EDGE('',*,*,#78,.T.);
#144 = FACE_BOUND('',#145,.F.);
#145 = EDGE_LOOP('',(#146));
#146 = ORIENTED_EDGE('',*,*,#147,.F.);
#147 = EDGE_CURVE('',#148,#148,#150,.T.);
#148 = VERTEX_POINT('',#149);
#149 = CARTESIAN_POINT('',(49.76495,33.3375,3.584969807484E-15));
#150 = SURFACE_CURVE('',#151,(#156,#163),.PCURVE_S1.);
#151 = CIRCLE('',#152,14.63675);
#152 = AXIS2_PLACEMENT_3D('',#153,#154,#155);
#153 = CARTESIAN_POINT('',(35.1282,33.3375,0.));
#154 = DIRECTION('',(6.123233995737E-17,1.,0.));
#155 = DIRECTION('',(1.,-6.123233995737E-17,0.));
#156 = PCURVE('',#93,#157);
#157 = DEFINITIONAL_REPRESENTATION('',(#158),#162);
#158 = CIRCLE('',#159,14.63675);
#159 = AXIS2_PLACEMENT_2D('',#160,#161);
#160 = CARTESIAN_POINT('',(7.105427357601E-15,0.));
#161 = DIRECTION('',(1.,0.));
#162 = ( GEOMETRIC_REPRESENTATION_CONTEXT(2) 
PARAMETRIC_REPRESENTATION_CONTEXT() REPRESENTATION_CONTEXT('2D SPACE',''
  ) );
#163 = PCURVE('',#164,#169);
#164 = CYLINDRICAL_SURFACE('',#165,14.63675);
#165 = AXIS2_PLACEMENT_3D('',#166,#167,#168);
#166 = CARTESIAN_POINT('',(35.1282,-29.2735,0.));
#167 = DIRECTION('',(6.123233995737E-17,1.,0.));
#168 = DIRECTION('',(1.,-6.123233995737E-17,0.));
#169 = DEFINITIONAL_REPRESENTATION('',(#170),#174);
#170 = LINE('',#171,#172);
#171 = CARTESIAN_POINT('',(0.,62.611));
#172 = VECTOR('',#173,1.);
#173 = DIRECTION('',(1.,0.));
#174 = ( GEOMETRIC_REPRESENTATION_CONTEXT(2) 
PARAMETRIC_REPRESENTATION_CONTEXT() REPRESENTATION_CONTEXT('2D SPACE',''
  ) );
#175 = ADVANCED_FACE('',(#176),#129,.T.);
#176 = FACE_BOUND('',#177,.T.);
#177 = EDGE_LOOP('',(#178));
#178 = ORIENTED_EDGE('',*,*,#112,.T.);
#179 = ADVANCED_FACE('',(#180),#164,.T.);
#180 = FACE_BOUND('',#181,.T.);
#181 = EDGE_LOOP('',(#182,#274,#343,#364,#365));
#182 = ORIENTED_EDGE('',*,*,#183,.T.);
#183 = EDGE_CURVE('',#184,#186,#188,.T.);
#184 = VERTEX_POINT('',#185);
#185 = CARTESIAN_POINT('',(49.76495,-14.63675,3.584969807484E-15));
#186 = VERTEX_POINT('',#187);
#187 = CARTESIAN_POINT('',(35.1282,3.584969807484E-15,14.63675));
#188 = SURFACE_CURVE('',#189,(#194,#228),.PCURVE_S1.);
#189 = ELLIPSE('',#190,20.699490359064,14.63675);
#190 = AXIS2_PLACEMENT_3D('',#191,#192,#193);
#191 = CARTESIAN_POINT('',(35.1282,0.,0.));
#192 = DIRECTION('',(0.707106781187,0.707106781187,0.));
#193 = DIRECTION('',(0.707106781187,-0.707106781187,0.));
#194 = PCURVE('',#164,#195);
#195 = DEFINITIONAL_REPRESENTATION('',(#196),#227);
#196 = B_SPLINE_CURVE_WITH_KNOTS('',8,(#197,#198,#199,#200,#201,#202,
    #203,#204,#205,#206,#207,#208,#209,#210,#211,#212,#213,#214,#215,
    #216,#217,#218,#219,#220,#221,#222,#223,#224,#225,#226),
  .UNSPECIFIED.,.F.,.F.,(9,7,7,7,9),(6.28318530718,7.853981633974,
    9.032078879071,10.799224746715,10.995574287564),.UNSPECIFIED.);
#197 = CARTESIAN_POINT('',(-8.881784197001E-16,14.63675));
#198 = CARTESIAN_POINT('',(0.196349540849,14.63675));
#199 = CARTESIAN_POINT('',(0.39269908169,15.281656562916));
#200 = CARTESIAN_POINT('',(0.589048622558,16.571464210204));
#201 = CARTESIAN_POINT('',(0.785398163378,18.453154482485));
#202 = CARTESIAN_POINT('',(0.98174770425,20.820582773934));
#203 = CARTESIAN_POINT('',(1.178097245091,23.525661033588));
#204 = CARTESIAN_POINT('',(1.374446785946,26.399580857973));
#205 = CARTESIAN_POINT('',(1.718058482432,31.42893935652));
#206 = CARTESIAN_POINT('',(1.865320638069,33.584377924205));
#207 = CARTESIAN_POINT('',(2.012582793705,35.66859324407));
#208 = CARTESIAN_POINT('',(2.159844949343,37.610343051217));
#209 = CARTESIAN_POINT('',(2.307107104981,39.343363661461));
#210 = CARTESIAN_POINT('',(2.454369260617,40.811244817203));
#211 = CARTESIAN_POINT('',(2.601631416254,41.971242816277));
#212 = CARTESIAN_POINT('',(2.969786805347,44.033370144296));
#213 = CARTESIAN_POINT('',(3.190680038814,44.516566561553));
#214 = CARTESIAN_POINT('',(3.411573272212,44.15369806939));
#215 = CARTESIAN_POINT('',(3.632466505759,42.931225875183));
#216 = CARTESIAN_POINT('',(3.853359739122,40.928606144655));
#217 = CARTESIAN_POINT('',(4.074252972634,38.311824734273));
#218 = CARTESIAN_POINT('',(4.29514620608,35.300023061285));
#219 = CARTESIAN_POINT('',(4.540583132142,31.776651071823));
#220 = CARTESIAN_POINT('',(4.565126824748,31.422348016517));
#221 = CARTESIAN_POINT('',(4.589670517354,31.06640252415));
#222 = CARTESIAN_POINT('',(4.61421420996,30.709140542191));
#223 = CARTESIAN_POINT('',(4.638757902566,30.350889921772));
#224 = CARTESIAN_POINT('',(4.663301595172,29.99197978551));
#225 = CARTESIAN_POINT('',(4.687845287779,29.632739891585));
#226 = CARTESIAN_POINT('',(4.712388980385,29.273499998007));
#227 = ( GEOMETRIC_REPRESENTATION_CONTEXT(2) 
PARAMETRIC_REPRESENTATION_CONTEXT() REPRESENTATION_CONTEXT('2D SPACE',''
  ) );
#228 = PCURVE('',#229,#234);
#229 = CYLINDRICAL_SURFACE('',#230,14.63675);
#230 = AXIS2_PLACEMENT_3D('',#231,#232,#233);
#231 = CARTESIAN_POINT('',(0.,0.,0.));
#232 = DIRECTION('',(1.,0.,0.));
#233 = DIRECTION('',(-0.,0.,1.));
#234 = DEFINITIONAL_REPRESENTATION('',(#235),#273);
#235 = B_SPLINE_CURVE_WITH_KNOTS('',8,(#236,#237,#238,#239,#240,#241,
    #242,#243,#244,#245,#246,#247,#248,#249,#250,#251,#252,#253,#254,
    #255,#256,#257,#258,#259,#260,#261,#262,#263,#264,#265,#266,#267,
    #268,#269,#270,#271,#272),.UNSPECIFIED.,.F.,.F.,(9,7,7,7,7,9),(
    4.712388980385,6.28318530718,7.461282552276,8.344855486098,
    9.670214886831,10.995574287564),.UNSPECIFIED.);
#236 = CARTESIAN_POINT('',(0.,35.1282));
#237 = CARTESIAN_POINT('',(0.196349540849,38.002119142027));
#238 = CARTESIAN_POINT('',(0.392699081695,40.876038966397));
#239 = CARTESIAN_POINT('',(0.589048622556,43.581117225981));
#240 = CARTESIAN_POINT('',(0.785398163377,45.948545517406));
#241 = CARTESIAN_POINT('',(0.981747704246,47.83023578973));
#242 = CARTESIAN_POINT('',(1.178097245091,49.120043437066));
#243 = CARTESIAN_POINT('',(1.374446785946,49.76495));
#244 = CARTESIAN_POINT('',(1.718058482432,49.76495));
#245 = CARTESIAN_POINT('',(1.86532063807,49.402190368192));
#246 = CARTESIAN_POINT('',(2.012582793705,48.676671427907));
#247 = CARTESIAN_POINT('',(2.159844949327,47.605174455484));
#248 = CARTESIAN_POINT('',(2.307107104967,46.221268333304));
#249 = CARTESIAN_POINT('',(2.454369260616,44.57335229254));
#250 = CARTESIAN_POINT('',(2.601631416254,42.720808033728));
#251 = CARTESIAN_POINT('',(2.859340188619,39.235916999876));
#252 = CARTESIAN_POINT('',(2.969786805346,37.664304849459));
#253 = CARTESIAN_POINT('',(3.080233422076,36.042367093445));
#254 = CARTESIAN_POINT('',(3.190680038802,34.399897596046));
#255 = CARTESIAN_POINT('',(3.301126655529,32.767639025326));
#256 = CARTESIAN_POINT('',(3.411573272259,31.176065104086));
#257 = CARTESIAN_POINT('',(3.522019888985,29.654179664158));
#258 = CARTESIAN_POINT('',(3.798136430805,26.089940034418));
#259 = CARTESIAN_POINT('',(3.963806355876,24.167822712095));
#260 = CARTESIAN_POINT('',(4.129476281022,22.551573576845));
#261 = CARTESIAN_POINT('',(4.295146206003,21.317957486525));
#262 = CARTESIAN_POINT('',(4.460816131214,20.52322648688));
#263 = CARTESIAN_POINT('',(4.626486056245,20.197063215488));
#264 = CARTESIAN_POINT('',(4.792155981355,20.34089988186));
#265 = CARTESIAN_POINT('',(5.123495831538,21.51929022775));
#266 = CARTESIAN_POINT('',(5.289165756625,22.553843986529));
#267 = CARTESIAN_POINT('',(5.454835681723,24.009112894536));
#268 = CARTESIAN_POINT('',(5.620505606764,25.834383767109));
#269 = CARTESIAN_POINT('',(5.786175531906,27.9550091472));
#270 = CARTESIAN_POINT('',(5.951845456986,30.278461284753));
#271 = CARTESIAN_POINT('',(6.117515382088,32.703330723915));
#272 = CARTESIAN_POINT('',(6.28318530718,35.1282));
#273 = ( GEOMETRIC_REPRESENTATION_CONTEXT(2) 
PARAMETRIC_REPRESENTATION_CONTEXT() REPRESENTATION_CONTEXT('2D SPACE',''
  ) );
#274 = ORIENTED_EDGE('',*,*,#275,.T.);
#275 = EDGE_CURVE('',#186,#184,#276,.T.);
#276 = SURFACE_CURVE('',#277,(#282,#302),.PCURVE_S1.);
#277 = ELLIPSE('',#278,20.699490359064,14.63675);
#278 = AXIS2_PLACEMENT_3D('',#279,#280,#281);
#279 = CARTESIAN_POINT('',(35.1282,0.,0.));
#280 = DIRECTION('',(0.707106781187,0.707106781187,0.));
#281 = DIRECTION('',(0.707106781187,-0.707106781187,0.));
#282 = PCURVE('',#164,#283);
#283 = DEFINITIONAL_REPRESENTATION('',(#284),#301);
#284 = B_SPLINE_CURVE_WITH_KNOTS('',8,(#285,#286,#287,#288,#289,#290,
    #291,#292,#293,#294,#295,#296,#297,#298,#299,#300),.UNSPECIFIED.,.F.
  ,.F.,(9,7,9),(4.712388980385,5.399612373357,6.28318530718),
  .UNSPECIFIED.);
#285 = CARTESIAN_POINT('',(4.712388980385,29.273499998007));
#286 = CARTESIAN_POINT('',(4.798291904507,28.016160370487));
#287 = CARTESIAN_POINT('',(4.884194828628,26.758820747227));
#288 = CARTESIAN_POINT('',(4.97009775275,25.515619502922));
#289 = CARTESIAN_POINT('',(5.056000676872,24.30069498674));
#290 = CARTESIAN_POINT('',(5.141903600993,23.127851623277));
#291 = CARTESIAN_POINT('',(5.227806525114,22.010226361116));
#292 = CARTESIAN_POINT('',(5.313709449236,20.959980771289));
#293 = CARTESIAN_POINT('',(5.510058990085,18.738411232383));
#294 = CARTESIAN_POINT('',(5.620505606813,17.61822789434));
#295 = CARTESIAN_POINT('',(5.73095222354,16.650721491401));
#296 = CARTESIAN_POINT('',(5.841398840267,15.855754318047));
#297 = CARTESIAN_POINT('',(5.951845456995,15.24890627847));
#298 = CARTESIAN_POINT('',(6.062292073724,14.840802413177));
#299 = CARTESIAN_POINT('',(6.172738690452,14.63675));
#300 = CARTESIAN_POINT('',(6.28318530718,14.63675));
#301 = ( GEOMETRIC_REPRESENTATION_CONTEXT(2) 
PARAMETRIC_REPRESENTATION_CONTEXT() REPRESENTATION_CONTEXT('2D SPACE',''
  ) );
#302 = PCURVE('',#229,#303);
#303 = DEFINITIONAL_REPRESENTATION('',(#304),#342);
#304 = B_SPLINE_CURVE_WITH_KNOTS('',8,(#305,#306,#307,#308,#309,#310,
    #311,#312,#313,#314,#315,#316,#317,#318,#319,#320,#321,#322,#323,
    #324,#325,#326,#327,#328,#329,#330,#331,#332,#333,#334,#335,#336,
    #337,#338,#339,#340,#341),.UNSPECIFIED.,.F.,.F.,(9,7,7,7,7,9),(
    4.712388980385,6.28318530718,7.461282552276,8.344855486098,
    9.670214886831,10.995574287564),.UNSPECIFIED.);
#305 = CARTESIAN_POINT('',(0.,35.1282));
#306 = CARTESIAN_POINT('',(0.196349540849,38.002119142027));
#307 = CARTESIAN_POINT('',(0.392699081695,40.876038966397));
#308 = CARTESIAN_POINT('',(0.589048622556,43.581117225981));
#309 = CARTESIAN_POINT('',(0.785398163377,45.948545517406));
#310 = CARTESIAN_POINT('',(0.981747704246,47.83023578973));
#311 = CARTESIAN_POINT('',(1.178097245091,49.120043437066));
#312 = CARTESIAN_POINT('',(1.374446785946,49.76495));
#313 = CARTESIAN_POINT('',(1.718058482432,49.76495));
#314 = CARTESIAN_POINT('',(1.86532063807,49.402190368192));
#315 = CARTESIAN_POINT('',(2.012582793705,48.676671427907));
#316 = CARTESIAN_POINT('',(2.159844949327,47.605174455484));
#317 = CARTESIAN_POINT('',(2.307107104967,46.221268333304));
#318 = CARTESIAN_POINT('',(2.454369260616,44.57335229254));
#319 = CARTESIAN_POINT('',(2.601631416254,42.720808033728));
#320 = CARTESIAN_POINT('',(2.859340188619,39.235916999876));
#321 = CARTESIAN_POINT('',(2.969786805346,37.664304849459));
#322 = CARTESIAN_POINT('',(3.080233422076,36.042367093445));
#323 = CARTESIAN_POINT('',(3.190680038802,34.399897596046));
#324 = CARTESIAN_POINT('',(3.301126655529,32.767639025326));
#325 = CARTESIAN_POINT('',(3.411573272259,31.176065104086));
#326 = CARTESIAN_POINT('',(3.522019888985,29.654179664158));
#327 = CARTESIAN_POINT('',(3.798136430805,26.089940034418));
#328 = CARTESIAN_POINT('',(3.963806355876,24.167822712095));
#329 = CARTESIAN_POINT('',(4.129476281022,22.551573576845));
#330 = CARTESIAN_POINT('',(4.295146206003,21.317957486525));
#331 = CARTESIAN_POINT('',(4.460816131214,20.52322648688));
#332 = CARTESIAN_POINT('',(4.626486056245,20.197063215488));
#333 = CARTESIAN_POINT('',(4.792155981355,20.34089988186));
#334 = CARTESIAN_POINT('',(5.123495831538,21.51929022775));
#335 = CARTESIAN_POINT('',(5.289165756625,22.553843986529));
#336 = CARTESIAN_POINT('',(5.454835681723,24.009112894536));
#337 = CARTESIAN_POINT('',(5.620505606764,25.834383767109));
#338 = CARTESIAN_POINT('',(5.786175531906,27.9550091472));
#339 = CARTESIAN_POINT('',(5.951845456986,30.278461284753));
#340 = CARTESIAN_POINT('',(6.117515382088,32.703330723915));
#341 = CARTESIAN_POINT('',(6.28318530718,35.1282));
#342 = ( GEOMETRIC_REPRESENTATION_CONTEXT(2) 
PARAMETRIC_REPRESENTATION_CONTEXT() REPRESENTATION_CONTEXT('2D SPACE',''
  ) );
#343 = ORIENTED_EDGE('',*,*,#344,.T.);
#344 = EDGE_CURVE('',#184,#148,#345,.T.);
#345 = SEAM_CURVE('',#346,(#350,#357),.PCURVE_S1.);
#346 = LINE('',#347,#348);
#347 = CARTESIAN_POINT('',(49.76495,-29.2735,3.584969807484E-15));
#348 = VECTOR('',#349,1.);
#349 = DIRECTION('',(6.123233995737E-17,1.,6.016155777704E-49));
#350 = PCURVE('',#164,#351);
#351 = DEFINITIONAL_REPRESENTATION('',(#352),#356);
#352 = LINE('',#353,#354);
#353 = CARTESIAN_POINT('',(0.,-0.));
#354 = VECTOR('',#355,1.);
#355 = DIRECTION('',(0.,1.));
#356 = ( GEOMETRIC_REPRESENTATION_CONTEXT(2) 
PARAMETRIC_REPRESENTATION_CONTEXT() REPRESENTATION_CONTEXT('2D SPACE',''
  ) );
#357 = PCURVE('',#164,#358);
#358 = DEFINITIONAL_REPRESENTATION('',(#359),#363);
#359 = LINE('',#360,#361);
#360 = CARTESIAN_POINT('',(6.28318530718,-0.));
#361 = VECTOR('',#362,1.);
#362 = DIRECTION('',(0.,1.));
#363 = ( GEOMETRIC_REPRESENTATION_CONTEXT(2) 
PARAMETRIC_REPRESENTATION_CONTEXT() REPRESENTATION_CONTEXT('2D SPACE',''
  ) );
#364 = ORIENTED_EDGE('',*,*,#147,.F.);
#365 = ORIENTED_EDGE('',*,*,#344,.F.);
#366 = ADVANCED_FACE('',(#367),#229,.T.);
#367 = FACE_BOUND('',#368,.T.);
#368 = EDGE_LOOP('',(#369,#392,#393,#394,#395));
#369 = ORIENTED_EDGE('',*,*,#370,.T.);
#370 = EDGE_CURVE('',#371,#186,#373,.T.);
#371 = VERTEX_POINT('',#372);
#372 = CARTESIAN_POINT('',(0.,3.584969807484E-15,14.63675));
#373 = SEAM_CURVE('',#374,(#378,#385),.PCURVE_S1.);
#374 = LINE('',#375,#376);
#375 = CARTESIAN_POINT('',(0.,3.584969807484E-15,14.63675));
#376 = VECTOR('',#377,1.);
#377 = DIRECTION('',(1.,0.,0.));
#378 = PCURVE('',#229,#379);
#379 = DEFINITIONAL_REPRESENTATION('',(#380),#384);
#380 = LINE('',#381,#382);
#381 = CARTESIAN_POINT('',(6.28318530718,-0.));
#382 = VECTOR('',#383,1.);
#383 = DIRECTION('',(0.,1.));
#384 = ( GEOMETRIC_REPRESENTATION_CONTEXT(2) 
PARAMETRIC_REPRESENTATION_CONTEXT() REPRESENTATION_CONTEXT('2D SPACE',''
  ) );
#385 = PCURVE('',#229,#386);
#386 = DEFINITIONAL_REPRESENTATION('',(#387),#391);
#387 = LINE('',#388,#389);
#388 = CARTESIAN_POINT('',(0.,-0.));
#389 = VECTOR('',#390,1.);
#390 = DIRECTION('',(0.,1.));
#391 = ( GEOMETRIC_REPRESENTATION_CONTEXT(2) 
PARAMETRIC_REPRESENTATION_CONTEXT() REPRESENTATION_CONTEXT('2D SPACE',''
  ) );
#392 = ORIENTED_EDGE('',*,*,#183,.F.);
#393 = ORIENTED_EDGE('',*,*,#275,.F.);
#394 = ORIENTED_EDGE('',*,*,#370,.F.);
#395 = ORIENTED_EDGE('',*,*,#396,.T.);
#396 = EDGE_CURVE('',#371,#371,#397,.T.);
#397 = SURFACE_CURVE('',#398,(#403,#410),.PCURVE_S1.);
#398 = CIRCLE('',#399,14.63675);
#399 = AXIS2_PLACEMENT_3D('',#400,#401,#402);
#400 = CARTESIAN_POINT('',(0.,0.,0.));
#401 = DIRECTION('',(1.,0.,0.));
#402 = DIRECTION('',(-0.,0.,1.));
#403 = PCURVE('',#229,#404);
#404 = DEFINITIONAL_REPRESENTATION('',(#405),#409);
#405 = LINE('',#406,#407);
#406 = CARTESIAN_POINT('',(0.,0.));
#407 = VECTOR('',#408,1.);
#408 = DIRECTION('',(1.,0.));
#409 = ( GEOMETRIC_REPRESENTATION_CONTEXT(2) 
PARAMETRIC_REPRESENTATION_CONTEXT() REPRESENTATION_CONTEXT('2D SPACE',''
  ) );
#410 = PCURVE('',#411,#416);
#411 = PLANE('',#412);
#412 = AXIS2_PLACEMENT_3D('',#413,#414,#415);
#413 = CARTESIAN_POINT('',(0.,0.,0.));
#414 = DIRECTION('',(1.,0.,0.));
#415 = DIRECTION('',(-0.,0.,1.));
#416 = DEFINITIONAL_REPRESENTATION('',(#417),#421);
#417 = CIRCLE('',#418,14.63675);
#418 = AXIS2_PLACEMENT_2D('',#419,#420);
#419 = CARTESIAN_POINT('',(0.,0.));
#420 = DIRECTION('',(1.,0.));
#421 = ( GEOMETRIC_REPRESENTATION_CONTEXT(2) 
PARAMETRIC_REPRESENTATION_CONTEXT() REPRESENTATION_CONTEXT('2D SPACE',''
  ) );
#422 = ADVANCED_FACE('',(#423,#426),#411,.F.);
#423 = FACE_BOUND('',#424,.F.);
#424 = EDGE_LOOP('',(#425));
#425 = ORIENTED_EDGE('',*,*,#396,.T.);
#426 = FACE_BOUND('',#427,.F.);
#427 = EDGE_LOOP('',(#428));
#428 = ORIENTED_EDGE('',*,*,#429,.F.);
#429 = EDGE_CURVE('',#430,#430,#432,.T.);
#430 = VERTEX_POINT('',#431);
#431 = CARTESIAN_POINT('',(0.,2.44182325282E-15,9.9695));
#432 = SURFACE_CURVE('',#433,(#438,#445),.PCURVE_S1.);
#433 = CIRCLE('',#434,9.9695);
#434 = AXIS2_PLACEMENT_3D('',#435,#436,#437);
#435 = CARTESIAN_POINT('',(0.,0.,0.));
#436 = DIRECTION('',(1.,0.,0.));
#437 = DIRECTION('',(-0.,0.,1.));
#438 = PCURVE('',#411,#439);
#439 = DEFINITIONAL_REPRESENTATION('',(#440),#444);
#440 = CIRCLE('',#441,9.9695);
#441 = AXIS2_PLACEMENT_2D('',#442,#443);
#442 = CARTESIAN_POINT('',(0.,0.));
#443 = DIRECTION('',(1.,0.));
#444 = ( GEOMETRIC_REPRESENTATION_CONTEXT(2) 
PARAMETRIC_REPRESENTATION_CONTEXT() REPRESENTATION_CONTEXT('2D SPACE',''
  ) );
#445 = PCURVE('',#446,#451);
#446 = CYLINDRICAL_SURFACE('',#447,9.9695);
#447 = AXIS2_PLACEMENT_3D('',#448,#449,#450);
#448 = CARTESIAN_POINT('',(-8.89,0.,0.));
#449 = DIRECTION('',(1.,0.,0.));
#450 = DIRECTION('',(-0.,0.,1.));
#451 = DEFINITIONAL_REPRESENTATION('',(#452),#456);
#452 = LINE('',#453,#454);
#453 = CARTESIAN_POINT('',(0.,8.89));
#454 = VECTOR('',#455,1.);
#455 = DIRECTION('',(1.,0.));
#456 = ( GEOMETRIC_REPRESENTATION_CONTEXT(2) 
PARAMETRIC_REPRESENTATION_CONTEXT() REPRESENTATION_CONTEXT('2D SPACE',''
  ) );
#457 = ADVANCED_FACE('',(#458),#446,.T.);
#458 = FACE_BOUND('',#459,.T.);
#459 = EDGE_LOOP('',(#460,#461,#484,#511));
#460 = ORIENTED_EDGE('',*,*,#429,.F.);
#461 = ORIENTED_EDGE('',*,*,#462,.F.);
#462 = EDGE_CURVE('',#463,#430,#465,.T.);
#463 = VERTEX_POINT('',#464);
#464 = CARTESIAN_POINT('',(-8.89,2.44182325282E-15,9.9695));
#465 = SEAM_CURVE('',#466,(#470,#477),.PCURVE_S1.);
#466 = LINE('',#467,#468);
#467 = CARTESIAN_POINT('',(-8.89,2.44182325282E-15,9.9695));
#468 = VECTOR('',#469,1.);
#469 = DIRECTION('',(1.,0.,0.));
#470 = PCURVE('',#446,#471);
#471 = DEFINITIONAL_REPRESENTATION('',(#472),#476);
#472 = LINE('',#473,#474);
#473 = CARTESIAN_POINT('',(6.28318530718,-0.));
#474 = VECTOR('',#475,1.);
#475 = DIRECTION('',(0.,1.));
#476 = ( GEOMETRIC_REPRESENTATION_CONTEXT(2) 
PARAMETRIC_REPRESENTATION_CONTEXT() REPRESENTATION_CONTEXT('2D SPACE',''
  ) );
#477 = PCURVE('',#446,#478);
#478 = DEFINITIONAL_REPRESENTATION('',(#479),#483);
#479 = LINE('',#480,#481);
#480 = CARTESIAN_POINT('',(0.,-0.));
#481 = VECTOR('',#482,1.);
#482 = DIRECTION('',(0.,1.));
#483 = ( GEOMETRIC_REPRESENTATION_CONTEXT(2) 
PARAMETRIC_REPRESENTATION_CONTEXT() REPRESENTATION_CONTEXT('2D SPACE',''
  ) );
#484 = ORIENTED_EDGE('',*,*,#485,.T.);
#485 = EDGE_CURVE('',#463,#463,#486,.T.);
#486 = SURFACE_CURVE('',#487,(#492,#499),.PCURVE_S1.);
#487 = CIRCLE('',#488,9.9695);
#488 = AXIS2_PLACEMENT_3D('',#489,#490,#491);
#489 = CARTESIAN_POINT('',(-8.89,0.,0.));
#490 = DIRECTION('',(1.,0.,0.));
#491 = DIRECTION('',(-0.,0.,1.));
#492 = PCURVE('',#446,#493);
#493 = DEFINITIONAL_REPRESENTATION('',(#494),#498);
#494 = LINE('',#495,#496);
#495 = CARTESIAN_POINT('',(0.,0.));
#496 = VECTOR('',#497,1.);
#497 = DIRECTION('',(1.,0.));
#498 = ( GEOMETRIC_REPRESENTATION_CONTEXT(2) 
PARAMETRIC_REPRESENTATION_CONTEXT() REPRESENTATION_CONTEXT('2D SPACE',''
  ) );
#499 = PCURVE('',#500,#505);
#500 = PLANE('',#501);
#501 = AXIS2_PLACEMENT_3D('',#502,#503,#504);
#502 = CARTESIAN_POINT('',(-8.89,0.,0.));
#503 = DIRECTION('',(1.,0.,0.));
#504 = DIRECTION('',(-0.,0.,1.));
#505 = DEFINITIONAL_REPRESENTATION('',(#506),#510);
#506 = CIRCLE('',#507,9.9695);
#507 = AXIS2_PLACEMENT_2D('',#508,#509);
#508 = CARTESIAN_POINT('',(0.,0.));
#509 = DIRECTION('',(1.,0.));
#510 = ( GEOMETRIC_REPRESENTATION_CONTEXT(2) 
PARAMETRIC_REPRESENTATION_CONTEXT() REPRESENTATION_CONTEXT('2D SPACE',''
  ) );
#511 = ORIENTED_EDGE('',*,*,#462,.T.);
#512 = ADVANCED_FACE('',(#513),#500,.F.);
#513 = FACE_BOUND('',#514,.T.);
#514 = EDGE_LOOP('',(#515));
#515 = ORIENTED_EDGE('',*,*,#485,.F.);
#516 = ( GEOMETRIC_REPRESENTATION_CONTEXT(3) 
GLOBAL_UNCERTAINTY_ASSIGNED_CONTEXT((#520)) GLOBAL_UNIT_ASSIGNED_CONTEXT
((#517,#518,#519)) REPRESENTATION_CONTEXT('Context #1',
  '3D Context with UNIT and UNCERTAINTY') );
#517 = ( LENGTH_UNIT() NAMED_UNIT(*) SI_UNIT(.MILLI.,.METRE.) );
#518 = ( NAMED_UNIT(*) PLANE_ANGLE_UNIT() SI_UNIT($,.RADIAN.) );
#519 = ( NAMED_UNIT(*) SI_UNIT($,.STERADIAN.) SOLID_ANGLE_UNIT() );
#520 = UNCERTAINTY_MEASURE_WITH_UNIT(LENGTH_MEASURE(1.E-07),#517,
  'distance_accuracy_value','confusion accuracy');
#521 = PRODUCT_RELATED_PRODUCT_CATEGORY('part',$,(#7));
ENDSEC;
END-ISO-10303-21;
