ISO-10303-21;
HEADER;
FILE_DESCRIPTION(('Open CASCADE Model'),'2;1');
FILE_NAME('Open CASCADE Shape Model','2026-08-22T13:45:11',('Author'),(
    'Open CASCADE'),'Open CASCADE STEP processor 7.8','Open CASCADE 7.8'
  ,'Unknown');
FILE_SCHEMA(('AUTOMOTIVE_DESIGN { 1 0 10303 214 1 1 1 1 }'));
ENDSEC;
DATA;
#1 = APPLICATION_PROTOCOL_DEFINITION('international standard',
  'automotive_design',2000,#2);
#2 = APPLICATION_CONTEXT(
  'core data for automotive mechanical design processes');
#3 = SHAPE_DEFINITION_REPRESENTATION(#4,#10);
#4 = PRODUCT_DEFINITION_SHAPE('','',#5);
#5 = PRODUCT_DEFINITION('design','',#6,#9);
#6 = PRODUCT_DEFINITION_FORMATION('','',#7);
#7 = PRODUCT('M85049-90_N11Z03','M85049-90_N11Z03','',(#8));
#8 = PRODUCT_CONTEXT('',#2,'mechanical');
#9 = PRODUCT_DEFINITION_CONTEXT('part definition',#2,'design');
#10 = ADVANCED_BREP_SHAPE_REPRESENTATION('',(#11,#15),#495);
#11 = AXIS2_PLACEMENT_3D('',#12,#13,#14);
#12 = CARTESIAN_POINT('',(0.,0.,0.));
#13 = DIRECTION('',(0.,0.,1.));
#14 = DIRECTION('',(1.,0.,-0.));
#15 = MANIFOLD_SOLID_BREP('',#16);
#16 = CLOSED_SHELL('',(#17,#105,#140,#175,#179,#345,#401,#436,#491));
#17 = ADVANCED_FACE('',(#18),#31,.T.);
#18 = FACE_BOUND('',#19,.T.);
#19 = EDGE_LOOP('',(#20,#54,#77,#104));
#20 = ORIENTED_EDGE('',*,*,#21,.F.);
#21 = EDGE_CURVE('',#22,#22,#24,.T.);
#22 = VERTEX_POINT('',#23);
#23 = CARTESIAN_POINT('',(41.275,36.4998,3.079496841136E-15));
#24 = SURFACE_CURVE('',#25,(#30,#42),.PCURVE_S1.);
#25 = CIRCLE('',#26,12.573);
#26 = AXIS2_PLACEMENT_3D('',#27,#28,#29);
#27 = CARTESIAN_POINT('',(28.702,36.4998,0.));
#28 = DIRECTION('',(6.123233995737E-17,1.,0.));
#29 = DIRECTION('',(1.,-6.123233995737E-17,0.));
#30 = PCURVE('',#31,#36);
#31 = CYLINDRICAL_SURFACE('',#32,12.573);
#32 = AXIS2_PLACEMENT_3D('',#33,#34,#35);
#33 = CARTESIAN_POINT('',(28.702,25.54986,0.));
#34 = DIRECTION('',(6.123233995737E-17,1.,0.));
#35 = DIRECTION('',(1.,-6.123233995737E-17,0.));
#36 = DEFINITIONAL_REPRESENTATION('',(#37),#41);
#37 = LINE('',#38,#39);
#38 = CARTESIAN_POINT('',(0.,10.94994));
#39 = VECTOR('',#40,1.);
#40 = DIRECTION('',(1.,0.));
#41 = ( GEOMETRIC_REPRESENTATION_CONTEXT(2) 
PARAMETRIC_REPRESENTATION_CONTEXT() REPRESENTATION_CONTEXT('2D SPACE',''
  ) );
#42 = PCURVE('',#43,#48);
#43 = PLANE('',#44);
#44 = AXIS2_PLACEMENT_3D('',#45,#46,#47);
#45 = CARTESIAN_POINT('',(28.702,36.4998,0.));
#46 = DIRECTION('',(6.123233995737E-17,1.,0.));
#47 = DIRECTION('',(1.,-6.123233995737E-17,0.));
#48 = DEFINITIONAL_REPRESENTATION('',(#49),#53);
#49 = CIRCLE('',#50,12.573);
#50 = AXIS2_PLACEMENT_2D('',#51,#52);
#51 = CARTESIAN_POINT('',(0.,0.));
#52 = DIRECTION('',(1.,0.));
#53 = ( GEOMETRIC_REPRESENTATION_CONTEXT(2) 
PARAMETRIC_REPRESENTATION_CONTEXT() REPRESENTATION_CONTEXT('2D SPACE',''
  ) );
#54 = ORIENTED_EDGE('',*,*,#55,.F.);
#55 = EDGE_CURVE('',#56,#22,#58,.T.);
#56 = VERTEX_POINT('',#57);
#57 = CARTESIAN_POINT('',(41.275,25.54986,3.079496841136E-15));
#58 = SEAM_CURVE('',#59,(#63,#70),.PCURVE_S1.);
#59 = LINE('',#60,#61);
#60 = CARTESIAN_POINT('',(41.275,25.54986,3.079496841136E-15));
#61 = VECTOR('',#62,1.);
#62 = DIRECTION('',(6.123233995737E-17,1.,6.016155777704E-49));
#63 = PCURVE('',#31,#64);
#64 = DEFINITIONAL_REPRESENTATION('',(#65),#69);
#65 = LINE('',#66,#67);
#66 = CARTESIAN_POINT('',(6.28318530718,-0.));
#67 = VECTOR('',#68,1.);
#68 = DIRECTION('',(0.,1.));
#69 = ( GEOMETRIC_REPRESENTATION_CONTEXT(2) 
PARAMETRIC_REPRESENTATION_CONTEXT() REPRESENTATION_CONTEXT('2D SPACE',''
  ) );
#70 = PCURVE('',#31,#71);
#71 = DEFINITIONAL_REPRESENTATION('',(#72),#76);
#72 = LINE('',#73,#74);
#73 = CARTESIAN_POINT('',(0.,-0.));
#74 = VECTOR('',#75,1.);
#75 = DIRECTION('',(0.,1.));
#76 = ( GEOMETRIC_REPRESENTATION_CONTEXT(2) 
PARAMETRIC_REPRESENTATION_CONTEXT() REPRESENTATION_CONTEXT('2D SPACE',''
  ) );
#77 = ORIENTED_EDGE('',*,*,#78,.T.);
#78 = EDGE_CURVE('',#56,#56,#79,.T.);
#79 = SURFACE_CURVE('',#80,(#85,#92),.PCURVE_S1.);
#80 = CIRCLE('',#81,12.573);
#81 = AXIS2_PLACEMENT_3D('',#82,#83,#84);
#82 = CARTESIAN_POINT('',(28.702,25.54986,0.));
#83 = DIRECTION('',(6.123233995737E-17,1.,0.));
#84 = DIRECTION('',(1.,-6.123233995737E-17,0.));
#85 = PCURVE('',#31,#86);
#86 = DEFINITIONAL_REPRESENTATION('',(#87),#91);
#87 = LINE('',#88,#89);
#88 = CARTESIAN_POINT('',(0.,0.));
#89 = VECTOR('',#90,1.);
#90 = DIRECTION('',(1.,0.));
#91 = ( GEOMETRIC_REPRESENTATION_CONTEXT(2) 
PARAMETRIC_REPRESENTATION_CONTEXT() REPRESENTATION_CONTEXT('2D SPACE',''
  ) );
#92 = PCURVE('',#93,#98);
#93 = PLANE('',#94);
#94 = AXIS2_PLACEMENT_3D('',#95,#96,#97);
#95 = CARTESIAN_POINT('',(28.702,25.54986,0.));
#96 = DIRECTION('',(6.123233995737E-17,1.,0.));
#97 = DIRECTION('',(1.,-6.123233995737E-17,0.));
#98 = DEFINITIONAL_REPRESENTATION('',(#99),#103);
#99 = CIRCLE('',#100,12.573);
#100 = AXIS2_PLACEMENT_2D('',#101,#102);
#101 = CARTESIAN_POINT('',(0.,0.));
#102 = DIRECTION('',(1.,0.));
#103 = ( GEOMETRIC_REPRESENTATION_CONTEXT(2) 
PARAMETRIC_REPRESENTATION_CONTEXT() REPRESENTATION_CONTEXT('2D SPACE',''
  ) );
#104 = ORIENTED_EDGE('',*,*,#55,.T.);
#105 = ADVANCED_FACE('',(#106,#109),#43,.T.);
#106 = FACE_BOUND('',#107,.T.);
#107 = EDGE_LOOP('',(#108));
#108 = ORIENTED_EDGE('',*,*,#21,.T.);
#109 = FACE_BOUND('',#110,.T.);
#110 = EDGE_LOOP('',(#111));
#111 = ORIENTED_EDGE('',*,*,#112,.F.);
#112 = EDGE_CURVE('',#113,#113,#115,.T.);
#113 = VERTEX_POINT('',#114);
#114 = CARTESIAN_POINT('',(37.9857,36.4998,2.273850697849E-15));
#115 = SURFACE_CURVE('',#116,(#121,#128),.PCURVE_S1.);
#116 = CIRCLE('',#117,9.2837);
#117 = AXIS2_PLACEMENT_3D('',#118,#119,#120);
#118 = CARTESIAN_POINT('',(28.702,36.4998,0.));
#119 = DIRECTION('',(6.123233995737E-17,1.,0.));
#120 = DIRECTION('',(1.,-6.123233995737E-17,0.));
#121 = PCURVE('',#43,#122);
#122 = DEFINITIONAL_REPRESENTATION('',(#123),#127);
#123 = CIRCLE('',#124,9.2837);
#124 = AXIS2_PLACEMENT_2D('',#125,#126);
#125 = CARTESIAN_POINT('',(0.,0.));
#126 = DIRECTION('',(1.,0.));
#127 = ( GEOMETRIC_REPRESENTATION_CONTEXT(2) 
PARAMETRIC_REPRESENTATION_CONTEXT() REPRESENTATION_CONTEXT('2D SPACE',''
  ) );
#128 = PCURVE('',#129,#134);
#129 = PLANE('',#130);
#130 = AXIS2_PLACEMENT_3D('',#131,#132,#133);
#131 = CARTESIAN_POINT('',(28.702,36.4998,0.));
#132 = DIRECTION('',(6.123233995737E-17,1.,0.));
#133 = DIRECTION('',(1.,-6.123233995737E-17,0.));
#134 = DEFINITIONAL_REPRESENTATION('',(#135),#139);
#135 = CIRCLE('',#136,9.2837);
#136 = AXIS2_PLACEMENT_2D('',#137,#138);
#137 = CARTESIAN_POINT('',(0.,0.));
#138 = DIRECTION('',(1.,0.));
#139 = ( GEOMETRIC_REPRESENTATION_CONTEXT(2) 
PARAMETRIC_REPRESENTATION_CONTEXT() REPRESENTATION_CONTEXT('2D SPACE',''
  ) );
#140 = ADVANCED_FACE('',(#141,#144),#93,.F.);
#141 = FACE_BOUND('',#142,.F.);
#142 = EDGE_LOOP('',(#143));
#143 = ORIENTED_EDGE('',*,*,#78,.T.);
#144 = FACE_BOUND('',#145,.F.);
#145 = EDGE_LOOP('',(#146));
#146 = ORIENTED_EDGE('',*,*,#147,.F.);
#147 = EDGE_CURVE('',#148,#148,#150,.T.);
#148 = VERTEX_POINT('',#149);
#149 = CARTESIAN_POINT('',(37.9857,25.54986,2.273850697849E-15));
#150 = SURFACE_CURVE('',#151,(#156,#163),.PCURVE_S1.);
#151 = CIRCLE('',#152,9.2837);
#152 = AXIS2_PLACEMENT_3D('',#153,#154,#155);
#153 = CARTESIAN_POINT('',(28.702,25.54986,0.));
#154 = DIRECTION('',(6.123233995737E-17,1.,0.));
#155 = DIRECTION('',(1.,-6.123233995737E-17,0.));
#156 = PCURVE('',#93,#157);
#157 = DEFINITIONAL_REPRESENTATION('',(#158),#162);
#158 = CIRCLE('',#159,9.2837);
#159 = AXIS2_PLACEMENT_2D('',#160,#161);
#160 = CARTESIAN_POINT('',(0.,0.));
#161 = DIRECTION('',(1.,0.));
#162 = ( GEOMETRIC_REPRESENTATION_CONTEXT(2) 
PARAMETRIC_REPRESENTATION_CONTEXT() REPRESENTATION_CONTEXT('2D SPACE',''
  ) );
#163 = PCURVE('',#164,#169);
#164 = CYLINDRICAL_SURFACE('',#165,9.2837);
#165 = AXIS2_PLACEMENT_3D('',#166,#167,#168);
#166 = CARTESIAN_POINT('',(28.702,-18.5674,0.));
#167 = DIRECTION('',(6.123233995737E-17,1.,0.));
#168 = DIRECTION('',(1.,-6.123233995737E-17,0.));
#169 = DEFINITIONAL_REPRESENTATION('',(#170),#174);
#170 = LINE('',#171,#172);
#171 = CARTESIAN_POINT('',(0.,44.11726));
#172 = VECTOR('',#173,1.);
#173 = DIRECTION('',(1.,0.));
#174 = ( GEOMETRIC_REPRESENTATION_CONTEXT(2) 
PARAMETRIC_REPRESENTATION_CONTEXT() REPRESENTATION_CONTEXT('2D SPACE',''
  ) );
#175 = ADVANCED_FACE('',(#176),#129,.T.);
#176 = FACE_BOUND('',#177,.T.);
#177 = EDGE_LOOP('',(#178));
#178 = ORIENTED_EDGE('',*,*,#112,.T.);
#179 = ADVANCED_FACE('',(#180),#164,.T.);
#180 = FACE_BOUND('',#181,.T.);
#181 = EDGE_LOOP('',(#182,#267,#322,#343,#344));
#182 = ORIENTED_EDGE('',*,*,#183,.T.);
#183 = EDGE_CURVE('',#184,#186,#188,.T.);
#184 = VERTEX_POINT('',#185);
#185 = CARTESIAN_POINT('',(37.9857,-9.2837,2.273850697849E-15));
#186 = VERTEX_POINT('',#187);
#187 = CARTESIAN_POINT('',(28.702,2.273850697849E-15,9.2837));
#188 = SURFACE_CURVE('',#189,(#194,#228),.PCURVE_S1.);
#189 = ELLIPSE('',#190,13.129134449003,9.2837);
#190 = AXIS2_PLACEMENT_3D('',#191,#192,#193);
#191 = CARTESIAN_POINT('',(28.702,0.,0.));
#192 = DIRECTION('',(0.707106781187,0.707106781187,0.));
#193 = DIRECTION('',(0.707106781187,-0.707106781187,0.));
#194 = PCURVE('',#164,#195);
#195 = DEFINITIONAL_REPRESENTATION('',(#196),#227);
#196 = B_SPLINE_CURVE_WITH_KNOTS('',8,(#197,#198,#199,#200,#201,#202,
    #203,#204,#205,#206,#207,#208,#209,#210,#211,#212,#213,#214,#215,
    #216,#217,#218,#219,#220,#221,#222,#223,#224,#225,#226),
  .UNSPECIFIED.,.F.,.F.,(9,7,7,7,9),(6.28318530718,7.853981633974,
    9.032078879071,10.799224746715,10.995574287564),.UNSPECIFIED.);
#197 = CARTESIAN_POINT('',(-8.881784197001E-16,9.2837));
#198 = CARTESIAN_POINT('',(0.196349540849,9.2837));
#199 = CARTESIAN_POINT('',(0.39269908169,9.692747026032));
#200 = CARTESIAN_POINT('',(0.589048622558,10.510837603149));
#201 = CARTESIAN_POINT('',(0.785398163378,11.704343537299));
#202 = CARTESIAN_POINT('',(0.98174770425,13.205940136844));
#203 = CARTESIAN_POINT('',(1.178097245091,14.92169910244));
#204 = CARTESIAN_POINT('',(1.374446785946,16.744549767617));
#205 = CARTESIAN_POINT('',(1.718058482432,19.934537674287));
#206 = CARTESIAN_POINT('',(1.865320638069,21.301674848237));
#207 = CARTESIAN_POINT('',(2.012582793705,22.623637016418));
#208 = CARTESIAN_POINT('',(2.159844949343,23.855237111014));
#209 = CARTESIAN_POINT('',(2.307107104981,24.954445845142));
#210 = CARTESIAN_POINT('',(2.454369260617,25.885483697508));
#211 = CARTESIAN_POINT('',(2.601631416254,26.621239478263));
#212 = CARTESIAN_POINT('',(2.969786805347,27.929191822543));
#213 = CARTESIAN_POINT('',(3.190680038814,28.235670417802));
#214 = CARTESIAN_POINT('',(3.411573272212,28.005512614867));
#215 = CARTESIAN_POINT('',(3.632466505759,27.230131119185));
#216 = CARTESIAN_POINT('',(3.853359739122,25.959922856113));
#217 = CARTESIAN_POINT('',(4.074252972634,24.300168226275));
#218 = CARTESIAN_POINT('',(4.29514620608,22.38986278334));
#219 = CARTESIAN_POINT('',(4.540583132142,20.155081937963));
#220 = CARTESIAN_POINT('',(4.565126824748,19.930356945471));
#221 = CARTESIAN_POINT('',(4.589670517354,19.704590199718));
#222 = CARTESIAN_POINT('',(4.61421420996,19.47798844759));
#223 = CARTESIAN_POINT('',(4.638757902566,19.250759637492));
#224 = CARTESIAN_POINT('',(4.663301595171,19.023112521556));
#225 = CARTESIAN_POINT('',(4.687845287777,18.795256254064));
#226 = CARTESIAN_POINT('',(4.712388980383,18.567399989167));
#227 = ( GEOMETRIC_REPRESENTATION_CONTEXT(2) 
PARAMETRIC_REPRESENTATION_CONTEXT() REPRESENTATION_CONTEXT('2D SPACE',''
  ) );
#228 = PCURVE('',#229,#234);
#229 = CYLINDRICAL_SURFACE('',#230,9.2837);
#230 = AXIS2_PLACEMENT_3D('',#231,#232,#233);
#231 = CARTESIAN_POINT('',(0.,0.,0.));
#232 = DIRECTION('',(1.,0.,0.));
#233 = DIRECTION('',(-0.,0.,1.));
#234 = DEFINITIONAL_REPRESENTATION('',(#235),#266);
#235 = B_SPLINE_CURVE_WITH_KNOTS('',8,(#236,#237,#238,#239,#240,#241,
    #242,#243,#244,#245,#246,#247,#248,#249,#250,#251,#252,#253,#254,
    #255,#256,#257,#258,#259,#260,#261,#262,#263,#264,#265),
  .UNSPECIFIED.,.F.,.F.,(9,7,7,7,9),(4.712388980385,6.28318530718,
    7.461282552276,9.22842841992,10.995574287564),.UNSPECIFIED.);
#236 = CARTESIAN_POINT('',(0.,28.702));
#237 = CARTESIAN_POINT('',(0.196349540849,30.524850232383));
#238 = CARTESIAN_POINT('',(0.392699081695,32.347700897533));
#239 = CARTESIAN_POINT('',(0.589048622556,34.063459863117));
#240 = CARTESIAN_POINT('',(0.785398163377,35.565056462513));
#241 = CARTESIAN_POINT('',(0.981747704246,36.758562396818));
#242 = CARTESIAN_POINT('',(1.178097245091,37.576652973945));
#243 = CARTESIAN_POINT('',(1.374446785946,37.9857));
#244 = CARTESIAN_POINT('',(1.718058482432,37.9857));
#245 = CARTESIAN_POINT('',(1.865320638068,37.755610440665));
#246 = CARTESIAN_POINT('',(2.01258279371,37.29543699009));
#247 = CARTESIAN_POINT('',(2.159844949344,36.61580749238));
#248 = CARTESIAN_POINT('',(2.307107104978,35.738040321667));
#249 = CARTESIAN_POINT('',(2.454369260619,34.692807287274));
#250 = CARTESIAN_POINT('',(2.601631416254,33.517788696447));
#251 = CARTESIAN_POINT('',(2.969786805347,30.360112407949));
#252 = CARTESIAN_POINT('',(3.190680038807,28.267390037071));
#253 = CARTESIAN_POINT('',(3.411573272227,26.117433589393));
#254 = CARTESIAN_POINT('',(3.63246650573,24.071673748988));
#255 = CARTESIAN_POINT('',(3.853359739136,22.290404326241));
#256 = CARTESIAN_POINT('',(4.07425297263,20.904583302421));
#257 = CARTESIAN_POINT('',(4.29514620608,19.996756685996));
#258 = CARTESIAN_POINT('',(4.736932672991,19.196610698645));
#259 = CARTESIAN_POINT('',(4.957825906441,19.304290884857));
#260 = CARTESIAN_POINT('',(5.1787191399,19.949461965851));
#261 = CARTESIAN_POINT('',(5.399612373302,21.109052669445));
#262 = CARTESIAN_POINT('',(5.620505606807,22.702362662288));
#263 = CARTESIAN_POINT('',(5.841398840264,24.600585842112));
#264 = CARTESIAN_POINT('',(6.062292073724,26.651293488569));
#265 = CARTESIAN_POINT('',(6.28318530718,28.702));
#266 = ( GEOMETRIC_REPRESENTATION_CONTEXT(2) 
PARAMETRIC_REPRESENTATION_CONTEXT() REPRESENTATION_CONTEXT('2D SPACE',''
  ) );
#267 = ORIENTED_EDGE('',*,*,#268,.T.);
#268 = EDGE_CURVE('',#186,#184,#269,.T.);
#269 = SURFACE_CURVE('',#270,(#275,#288),.PCURVE_S1.);
#270 = ELLIPSE('',#271,13.129134449003,9.2837);
#271 = AXIS2_PLACEMENT_3D('',#272,#273,#274);
#272 = CARTESIAN_POINT('',(28.702,0.,0.));
#273 = DIRECTION('',(0.707106781187,0.707106781187,0.));
#274 = DIRECTION('',(0.707106781187,-0.707106781187,0.));
#275 = PCURVE('',#164,#276);
#276 = DEFINITIONAL_REPRESENTATION('',(#277),#287);
#277 = B_SPLINE_CURVE_WITH_KNOTS('',8,(#278,#279,#280,#281,#282,#283,
    #284,#285,#286),.UNSPECIFIED.,.F.,.F.,(9,9),(4.712388980385,
    6.28318530718),.PIECEWISE_BEZIER_KNOTS.);
#278 = CARTESIAN_POINT('',(4.712388980383,18.567399989167));
#279 = CARTESIAN_POINT('',(4.908738521229,16.744549869983));
#280 = CARTESIAN_POINT('',(5.105088062071,14.921699916757));
#281 = CARTESIAN_POINT('',(5.301437602912,13.20593705292));
#282 = CARTESIAN_POINT('',(5.497787143762,11.704347637665));
#283 = CARTESIAN_POINT('',(5.694136684626,10.510835125081));
#284 = CARTESIAN_POINT('',(5.89048622548,9.692747607715));
#285 = CARTESIAN_POINT('',(6.08683576633,9.2837));
#286 = CARTESIAN_POINT('',(6.28318530718,9.2837));
#287 = ( GEOMETRIC_REPRESENTATION_CONTEXT(2) 
PARAMETRIC_REPRESENTATION_CONTEXT() REPRESENTATION_CONTEXT('2D SPACE',''
  ) );
#288 = PCURVE('',#229,#289);
#289 = DEFINITIONAL_REPRESENTATION('',(#290),#321);
#290 = B_SPLINE_CURVE_WITH_KNOTS('',8,(#291,#292,#293,#294,#295,#296,
    #297,#298,#299,#300,#301,#302,#303,#304,#305,#306,#307,#308,#309,
    #310,#311,#312,#313,#314,#315,#316,#317,#318,#319,#320),
  .UNSPECIFIED.,.F.,.F.,(9,7,7,7,9),(4.712388980385,6.28318530718,
    7.461282552276,9.22842841992,10.995574287564),.UNSPECIFIED.);
#291 = CARTESIAN_POINT('',(0.,28.702));
#292 = CARTESIAN_POINT('',(0.196349540849,30.524850232383));
#293 = CARTESIAN_POINT('',(0.392699081695,32.347700897533));
#294 = CARTESIAN_POINT('',(0.589048622556,34.063459863117));
#295 = CARTESIAN_POINT('',(0.785398163377,35.565056462513));
#296 = CARTESIAN_POINT('',(0.981747704246,36.758562396818));
#297 = CARTESIAN_POINT('',(1.178097245091,37.576652973945));
#298 = CARTESIAN_POINT('',(1.374446785946,37.9857));
#299 = CARTESIAN_POINT('',(1.718058482432,37.9857));
#300 = CARTESIAN_POINT('',(1.865320638068,37.755610440665));
#301 = CARTESIAN_POINT('',(2.01258279371,37.29543699009));
#302 = CARTESIAN_POINT('',(2.159844949344,36.61580749238));
#303 = CARTESIAN_POINT('',(2.307107104978,35.738040321667));
#304 = CARTESIAN_POINT('',(2.454369260619,34.692807287274));
#305 = CARTESIAN_POINT('',(2.601631416254,33.517788696447));
#306 = CARTESIAN_POINT('',(2.969786805347,30.360112407949));
#307 = CARTESIAN_POINT('',(3.190680038807,28.267390037071));
#308 = CARTESIAN_POINT('',(3.411573272227,26.117433589393));
#309 = CARTESIAN_POINT('',(3.63246650573,24.071673748988));
#310 = CARTESIAN_POINT('',(3.853359739136,22.290404326241));
#311 = CARTESIAN_POINT('',(4.07425297263,20.904583302421));
#312 = CARTESIAN_POINT('',(4.29514620608,19.996756685996));
#313 = CARTESIAN_POINT('',(4.736932672991,19.196610698645));
#314 = CARTESIAN_POINT('',(4.957825906441,19.304290884857));
#315 = CARTESIAN_POINT('',(5.1787191399,19.949461965851));
#316 = CARTESIAN_POINT('',(5.399612373302,21.109052669445));
#317 = CARTESIAN_POINT('',(5.620505606807,22.702362662288));
#318 = CARTESIAN_POINT('',(5.841398840264,24.600585842112));
#319 = CARTESIAN_POINT('',(6.062292073724,26.651293488569));
#320 = CARTESIAN_POINT('',(6.28318530718,28.702));
#321 = ( GEOMETRIC_REPRESENTATION_CONTEXT(2) 
PARAMETRIC_REPRESENTATION_CONTEXT() REPRESENTATION_CONTEXT('2D SPACE',''
  ) );
#322 = ORIENTED_EDGE('',*,*,#323,.T.);
#323 = EDGE_CURVE('',#184,#148,#324,.T.);
#324 = SEAM_CURVE('',#325,(#329,#336),.PCURVE_S1.);
#325 = LINE('',#326,#327);
#326 = CARTESIAN_POINT('',(37.9857,-18.5674,2.273850697849E-15));
#327 = VECTOR('',#328,1.);
#328 = DIRECTION('',(6.123233995737E-17,1.,6.016155777704E-49));
#329 = PCURVE('',#164,#330);
#330 = DEFINITIONAL_REPRESENTATION('',(#331),#335);
#331 = LINE('',#332,#333);
#332 = CARTESIAN_POINT('',(0.,-0.));
#333 = VECTOR('',#334,1.);
#334 = DIRECTION('',(0.,1.));
#335 = ( GEOMETRIC_REPRESENTATION_CONTEXT(2) 
PARAMETRIC_REPRESENTATION_CONTEXT() REPRESENTATION_CONTEXT('2D SPACE',''
  ) );
#336 = PCURVE('',#164,#337);
#337 = DEFINITIONAL_REPRESENTATION('',(#338),#342);
#338 = LINE('',#339,#340);
#339 = CARTESIAN_POINT('',(6.28318530718,-0.));
#340 = VECTOR('',#341,1.);
#341 = DIRECTION('',(0.,1.));
#342 = ( GEOMETRIC_REPRESENTATION_CONTEXT(2) 
PARAMETRIC_REPRESENTATION_CONTEXT() REPRESENTATION_CONTEXT('2D SPACE',''
  ) );
#343 = ORIENTED_EDGE('',*,*,#147,.F.);
#344 = ORIENTED_EDGE('',*,*,#323,.F.);
#345 = ADVANCED_FACE('',(#346),#229,.T.);
#346 = FACE_BOUND('',#347,.T.);
#347 = EDGE_LOOP('',(#348,#371,#372,#373,#374));
#348 = ORIENTED_EDGE('',*,*,#349,.T.);
#349 = EDGE_CURVE('',#350,#186,#352,.T.);
#350 = VERTEX_POINT('',#351);
#351 = CARTESIAN_POINT('',(0.,2.273850697849E-15,9.2837));
#352 = SEAM_CURVE('',#353,(#357,#364),.PCURVE_S1.);
#353 = LINE('',#354,#355);
#354 = CARTESIAN_POINT('',(0.,2.273850697849E-15,9.2837));
#355 = VECTOR('',#356,1.);
#356 = DIRECTION('',(1.,0.,0.));
#357 = PCURVE('',#229,#358);
#358 = DEFINITIONAL_REPRESENTATION('',(#359),#363);
#359 = LINE('',#360,#361);
#360 = CARTESIAN_POINT('',(6.28318530718,-0.));
#361 = VECTOR('',#362,1.);
#362 = DIRECTION('',(0.,1.));
#363 = ( GEOMETRIC_REPRESENTATION_CONTEXT(2) 
PARAMETRIC_REPRESENTATION_CONTEXT() REPRESENTATION_CONTEXT('2D SPACE',''
  ) );
#364 = PCURVE('',#229,#365);
#365 = DEFINITIONAL_REPRESENTATION('',(#366),#370);
#366 = LINE('',#367,#368);
#367 = CARTESIAN_POINT('',(0.,-0.));
#368 = VECTOR('',#369,1.);
#369 = DIRECTION('',(0.,1.));
#370 = ( GEOMETRIC_REPRESENTATION_CONTEXT(2) 
PARAMETRIC_REPRESENTATION_CONTEXT() REPRESENTATION_CONTEXT('2D SPACE',''
  ) );
#371 = ORIENTED_EDGE('',*,*,#183,.F.);
#372 = ORIENTED_EDGE('',*,*,#268,.F.);
#373 = ORIENTED_EDGE('',*,*,#349,.F.);
#374 = ORIENTED_EDGE('',*,*,#375,.T.);
#375 = EDGE_CURVE('',#350,#350,#376,.T.);
#376 = SURFACE_CURVE('',#377,(#382,#389),.PCURVE_S1.);
#377 = CIRCLE('',#378,9.2837);
#378 = AXIS2_PLACEMENT_3D('',#379,#380,#381);
#379 = CARTESIAN_POINT('',(0.,0.,0.));
#380 = DIRECTION('',(1.,0.,0.));
#381 = DIRECTION('',(-0.,0.,1.));
#382 = PCURVE('',#229,#383);
#383 = DEFINITIONAL_REPRESENTATION('',(#384),#388);
#384 = LINE('',#385,#386);
#385 = CARTESIAN_POINT('',(0.,0.));
#386 = VECTOR('',#387,1.);
#387 = DIRECTION('',(1.,0.));
#388 = ( GEOMETRIC_REPRESENTATION_CONTEXT(2) 
PARAMETRIC_REPRESENTATION_CONTEXT() REPRESENTATION_CONTEXT('2D SPACE',''
  ) );
#389 = PCURVE('',#390,#395);
#390 = PLANE('',#391);
#391 = AXIS2_PLACEMENT_3D('',#392,#393,#394);
#392 = CARTESIAN_POINT('',(0.,0.,0.));
#393 = DIRECTION('',(1.,0.,0.));
#394 = DIRECTION('',(-0.,0.,1.));
#395 = DEFINITIONAL_REPRESENTATION('',(#396),#400);
#396 = CIRCLE('',#397,9.2837);
#397 = AXIS2_PLACEMENT_2D('',#398,#399);
#398 = CARTESIAN_POINT('',(0.,0.));
#399 = DIRECTION('',(1.,0.));
#400 = ( GEOMETRIC_REPRESENTATION_CONTEXT(2) 
PARAMETRIC_REPRESENTATION_CONTEXT() REPRESENTATION_CONTEXT('2D SPACE',''
  ) );
#401 = ADVANCED_FACE('',(#402,#405),#390,.F.);
#402 = FACE_BOUND('',#403,.F.);
#403 = EDGE_LOOP('',(#404));
#404 = ORIENTED_EDGE('',*,*,#375,.T.);
#405 = FACE_BOUND('',#406,.F.);
#406 = EDGE_LOOP('',(#407));
#407 = ORIENTED_EDGE('',*,*,#408,.F.);
#408 = EDGE_CURVE('',#409,#409,#411,.T.);
#409 = VERTEX_POINT('',#410);
#410 = CARTESIAN_POINT('',(0.,1.468204554562E-15,5.9944));
#411 = SURFACE_CURVE('',#412,(#417,#424),.PCURVE_S1.);
#412 = CIRCLE('',#413,5.9944);
#413 = AXIS2_PLACEMENT_3D('',#414,#415,#416);
#414 = CARTESIAN_POINT('',(0.,0.,0.));
#415 = DIRECTION('',(1.,0.,0.));
#416 = DIRECTION('',(-0.,0.,1.));
#417 = PCURVE('',#390,#418);
#418 = DEFINITIONAL_REPRESENTATION('',(#419),#423);
#419 = CIRCLE('',#420,5.9944);
#420 = AXIS2_PLACEMENT_2D('',#421,#422);
#421 = CARTESIAN_POINT('',(0.,0.));
#422 = DIRECTION('',(1.,0.));
#423 = ( GEOMETRIC_REPRESENTATION_CONTEXT(2) 
PARAMETRIC_REPRESENTATION_CONTEXT() REPRESENTATION_CONTEXT('2D SPACE',''
  ) );
#424 = PCURVE('',#425,#430);
#425 = CYLINDRICAL_SURFACE('',#426,5.9944);
#426 = AXIS2_PLACEMENT_3D('',#427,#428,#429);
#427 = CARTESIAN_POINT('',(-8.89,0.,0.));
#428 = DIRECTION('',(1.,0.,0.));
#429 = DIRECTION('',(-0.,0.,1.));
#430 = DEFINITIONAL_REPRESENTATION('',(#431),#435);
#431 = LINE('',#432,#433);
#432 = CARTESIAN_POINT('',(0.,8.89));
#433 = VECTOR('',#434,1.);
#434 = DIRECTION('',(1.,0.));
#435 = ( GEOMETRIC_REPRESENTATION_CONTEXT(2) 
PARAMETRIC_REPRESENTATION_CONTEXT() REPRESENTATION_CONTEXT('2D SPACE',''
  ) );
#436 = ADVANCED_FACE('',(#437),#425,.T.);
#437 = FACE_BOUND('',#438,.T.);
#438 = EDGE_LOOP('',(#439,#440,#463,#490));
#439 = ORIENTED_EDGE('',*,*,#408,.F.);
#440 = ORIENTED_EDGE('',*,*,#441,.F.);
#441 = EDGE_CURVE('',#442,#409,#444,.T.);
#442 = VERTEX_POINT('',#443);
#443 = CARTESIAN_POINT('',(-8.89,1.468204554562E-15,5.9944));
#444 = SEAM_CURVE('',#445,(#449,#456),.PCURVE_S1.);
#445 = LINE('',#446,#447);
#446 = CARTESIAN_POINT('',(-8.89,1.468204554562E-15,5.9944));
#447 = VECTOR('',#448,1.);
#448 = DIRECTION('',(1.,0.,0.));
#449 = PCURVE('',#425,#450);
#450 = DEFINITIONAL_REPRESENTATION('',(#451),#455);
#451 = LINE('',#452,#453);
#452 = CARTESIAN_POINT('',(6.28318530718,-0.));
#453 = VECTOR('',#454,1.);
#454 = DIRECTION('',(0.,1.));
#455 = ( GEOMETRIC_REPRESENTATION_CONTEXT(2) 
PARAMETRIC_REPRESENTATION_CONTEXT() REPRESENTATION_CONTEXT('2D SPACE',''
  ) );
#456 = PCURVE('',#425,#457);
#457 = DEFINITIONAL_REPRESENTATION('',(#458),#462);
#458 = LINE('',#459,#460);
#459 = CARTESIAN_POINT('',(0.,-0.));
#460 = VECTOR('',#461,1.);
#461 = DIRECTION('',(0.,1.));
#462 = ( GEOMETRIC_REPRESENTATION_CONTEXT(2) 
PARAMETRIC_REPRESENTATION_CONTEXT() REPRESENTATION_CONTEXT('2D SPACE',''
  ) );
#463 = ORIENTED_EDGE('',*,*,#464,.T.);
#464 = EDGE_CURVE('',#442,#442,#465,.T.);
#465 = SURFACE_CURVE('',#466,(#471,#478),.PCURVE_S1.);
#466 = CIRCLE('',#467,5.9944);
#467 = AXIS2_PLACEMENT_3D('',#468,#469,#470);
#468 = CARTESIAN_POINT('',(-8.89,0.,0.));
#469 = DIRECTION('',(1.,0.,0.));
#470 = DIRECTION('',(-0.,0.,1.));
#471 = PCURVE('',#425,#472);
#472 = DEFINITIONAL_REPRESENTATION('',(#473),#477);
#473 = LINE('',#474,#475);
#474 = CARTESIAN_POINT('',(0.,0.));
#475 = VECTOR('',#476,1.);
#476 = DIRECTION('',(1.,0.));
#477 = ( GEOMETRIC_REPRESENTATION_CONTEXT(2) 
PARAMETRIC_REPRESENTATION_CONTEXT() REPRESENTATION_CONTEXT('2D SPACE',''
  ) );
#478 = PCURVE('',#479,#484);
#479 = PLANE('',#480);
#480 = AXIS2_PLACEMENT_3D('',#481,#482,#483);
#481 = CARTESIAN_POINT('',(-8.89,0.,0.));
#482 = DIRECTION('',(1.,0.,0.));
#483 = DIRECTION('',(-0.,0.,1.));
#484 = DEFINITIONAL_REPRESENTATION('',(#485),#489);
#485 = CIRCLE('',#486,5.9944);
#486 = AXIS2_PLACEMENT_2D('',#487,#488);
#487 = CARTESIAN_POINT('',(0.,0.));
#488 = DIRECTION('',(1.,0.));
#489 = ( GEOMETRIC_REPRESENTATION_CONTEXT(2) 
PARAMETRIC_REPRESENTATION_CONTEXT() REPRESENTATION_CONTEXT('2D SPACE',''
  ) );
#490 = ORIENTED_EDGE('',*,*,#441,.T.);
#491 = ADVANCED_FACE('',(#492),#479,.F.);
#492 = FACE_BOUND('',#493,.T.);
#493 = EDGE_LOOP('',(#494));
#494 = ORIENTED_EDGE('',*,*,#464,.F.);
#495 = ( GEOMETRIC_REPRESENTATION_CONTEXT(3) 
GLOBAL_UNCERTAINTY_ASSIGNED_CONTEXT((#499)) GLOBAL_UNIT_ASSIGNED_CONTEXT
((#496,#497,#498)) REPRESENTATION_CONTEXT('Context #1',
  '3D Context with UNIT and UNCERTAINTY') );
#496 = ( LENGTH_UNIT() NAMED_UNIT(*) SI_UNIT(.MILLI.,.METRE.) );
#497 = ( NAMED_UNIT(*) PLANE_ANGLE_UNIT() SI_UNIT($,.RADIAN.) );
#498 = ( NAMED_UNIT(*) SI_UNIT($,.STERADIAN.) SOLID_ANGLE_UNIT() );
#499 = UNCERTAINTY_MEASURE_WITH_UNIT(LENGTH_MEASURE(1.E-07),#496,
  'distance_accuracy_value','confusion accuracy');
#500 = PRODUCT_RELATED_PRODUCT_CATEGORY('part',$,(#7));
ENDSEC;
END-ISO-10303-21;
