ISO-10303-21;
HEADER;
FILE_DESCRIPTION(('Open CASCADE Model'),'2;1');
FILE_NAME('Open CASCADE Shape Model','2026-08-22T13:45:03',('Author'),(
    'Open CASCADE'),'Open CASCADE STEP processor 7.8','Open CASCADE 7.8'
  ,'Unknown');
FILE_SCHEMA(('AUTOMOTIVE_DESIGN { 1 0 10303 214 1 1 1 1 }'));
ENDSEC;
DATA;
#1 = APPLICATION_PROTOCOL_DEFINITION('international standard',
  'automotive_design',2000,#2);
#2 = APPLICATION_CONTEXT(
  'core data for automotive mechanical design processes');
#3 = SHAPE_DEFINITION_REPRESENTATION(#4,#10);
#4 = PRODUCT_DEFINITION_SHAPE('','',#5);
#5 = PRODUCT_DEFINITION('design','',#6,#9);
#6 = PRODUCT_DEFINITION_FORMATION('','',#7);
#7 = PRODUCT('M85049-90_13W03','M85049-90_13W03','',(#8));
#8 = PRODUCT_CONTEXT('',#2,'mechanical');
#9 = PRODUCT_DEFINITION_CONTEXT('part definition',#2,'design');
#10 = ADVANCED_BREP_SHAPE_REPRESENTATION('',(#11,#15),#509);
#11 = AXIS2_PLACEMENT_3D('',#12,#13,#14);
#12 = CARTESIAN_POINT('',(0.,0.,0.));
#13 = DIRECTION('',(0.,0.,1.));
#14 = DIRECTION('',(1.,0.,-0.));
#15 = MANIFOLD_SOLID_BREP('',#16);
#16 = CLOSED_SHELL('',(#17,#105,#140,#175,#179,#359,#415,#450,#505));
#17 = ADVANCED_FACE('',(#18),#31,.T.);
#18 = FACE_BOUND('',#19,.T.);
#19 = EDGE_LOOP('',(#20,#54,#77,#104));
#20 = ORIENTED_EDGE('',*,*,#21,.F.);
#21 = EDGE_CURVE('',#22,#22,#24,.T.);
#22 = VERTEX_POINT('',#23);
#23 = CARTESIAN_POINT('',(45.2882,39.6748,3.608299329008E-15));
#24 = SURFACE_CURVE('',#25,(#30,#42),.PCURVE_S1.);
#25 = CIRCLE('',#26,14.732);
#26 = AXIS2_PLACEMENT_3D('',#27,#28,#29);
#27 = CARTESIAN_POINT('',(30.5562,39.6748,0.));
#28 = DIRECTION('',(6.123233995737E-17,1.,0.));
#29 = DIRECTION('',(1.,-6.123233995737E-17,0.));
#30 = PCURVE('',#31,#36);
#31 = CYLINDRICAL_SURFACE('',#32,14.732);
#32 = AXIS2_PLACEMENT_3D('',#33,#34,#35);
#33 = CARTESIAN_POINT('',(30.5562,27.77236,0.));
#34 = DIRECTION('',(6.123233995737E-17,1.,0.));
#35 = DIRECTION('',(1.,-6.123233995737E-17,0.));
#36 = DEFINITIONAL_REPRESENTATION('',(#37),#41);
#37 = LINE('',#38,#39);
#38 = CARTESIAN_POINT('',(0.,11.90244));
#39 = VECTOR('',#40,1.);
#40 = DIRECTION('',(1.,0.));
#41 = ( GEOMETRIC_REPRESENTATION_CONTEXT(2) 
PARAMETRIC_REPRESENTATION_CONTEXT() REPRESENTATION_CONTEXT('2D SPACE',''
  ) );
#42 = PCURVE('',#43,#48);
#43 = PLANE('',#44);
#44 = AXIS2_PLACEMENT_3D('',#45,#46,#47);
#45 = CARTESIAN_POINT('',(30.5562,39.6748,0.));
#46 = DIRECTION('',(6.123233995737E-17,1.,0.));
#47 = DIRECTION('',(1.,-6.123233995737E-17,0.));
#48 = DEFINITIONAL_REPRESENTATION('',(#49),#53);
#49 = CIRCLE('',#50,14.732);
#50 = AXIS2_PLACEMENT_2D('',#51,#52);
#51 = CARTESIAN_POINT('',(0.,0.));
#52 = DIRECTION('',(1.,0.));
#53 = ( GEOMETRIC_REPRESENTATION_CONTEXT(2) 
PARAMETRIC_REPRESENTATION_CONTEXT() REPRESENTATION_CONTEXT('2D SPACE',''
  ) );
#54 = ORIENTED_EDGE('',*,*,#55,.F.);
#55 = EDGE_CURVE('',#56,#22,#58,.T.);
#56 = VERTEX_POINT('',#57);
#57 = CARTESIAN_POINT('',(45.2882,27.77236,3.608299329008E-15));
#58 = SEAM_CURVE('',#59,(#63,#70),.PCURVE_S1.);
#59 = LINE('',#60,#61);
#60 = CARTESIAN_POINT('',(45.2882,27.77236,3.608299329008E-15));
#61 = VECTOR('',#62,1.);
#62 = DIRECTION('',(6.123233995737E-17,1.,6.016155777704E-49));
#63 = PCURVE('',#31,#64);
#64 = DEFINITIONAL_REPRESENTATION('',(#65),#69);
#65 = LINE('',#66,#67);
#66 = CARTESIAN_POINT('',(6.28318530718,-0.));
#67 = VECTOR('',#68,1.);
#68 = DIRECTION('',(0.,1.));
#69 = ( GEOMETRIC_REPRESENTATION_CONTEXT(2) 
PARAMETRIC_REPRESENTATION_CONTEXT() REPRESENTATION_CONTEXT('2D SPACE',''
  ) );
#70 = PCURVE('',#31,#71);
#71 = DEFINITIONAL_REPRESENTATION('',(#72),#76);
#72 = LINE('',#73,#74);
#73 = CARTESIAN_POINT('',(0.,-0.));
#74 = VECTOR('',#75,1.);
#75 = DIRECTION('',(0.,1.));
#76 = ( GEOMETRIC_REPRESENTATION_CONTEXT(2) 
PARAMETRIC_REPRESENTATION_CONTEXT() REPRESENTATION_CONTEXT('2D SPACE',''
  ) );
#77 = ORIENTED_EDGE('',*,*,#78,.T.);
#78 = EDGE_CURVE('',#56,#56,#79,.T.);
#79 = SURFACE_CURVE('',#80,(#85,#92),.PCURVE_S1.);
#80 = CIRCLE('',#81,14.732);
#81 = AXIS2_PLACEMENT_3D('',#82,#83,#84);
#82 = CARTESIAN_POINT('',(30.5562,27.77236,0.));
#83 = DIRECTION('',(6.123233995737E-17,1.,0.));
#84 = DIRECTION('',(1.,-6.123233995737E-17,0.));
#85 = PCURVE('',#31,#86);
#86 = DEFINITIONAL_REPRESENTATION('',(#87),#91);
#87 = LINE('',#88,#89);
#88 = CARTESIAN_POINT('',(0.,0.));
#89 = VECTOR('',#90,1.);
#90 = DIRECTION('',(1.,0.));
#91 = ( GEOMETRIC_REPRESENTATION_CONTEXT(2) 
PARAMETRIC_REPRESENTATION_CONTEXT() REPRESENTATION_CONTEXT('2D SPACE',''
  ) );
#92 = PCURVE('',#93,#98);
#93 = PLANE('',#94);
#94 = AXIS2_PLACEMENT_3D('',#95,#96,#97);
#95 = CARTESIAN_POINT('',(30.5562,27.77236,0.));
#96 = DIRECTION('',(6.123233995737E-17,1.,0.));
#97 = DIRECTION('',(1.,-6.123233995737E-17,0.));
#98 = DEFINITIONAL_REPRESENTATION('',(#99),#103);
#99 = CIRCLE('',#100,14.732);
#100 = AXIS2_PLACEMENT_2D('',#101,#102);
#101 = CARTESIAN_POINT('',(0.,0.));
#102 = DIRECTION('',(1.,0.));
#103 = ( GEOMETRIC_REPRESENTATION_CONTEXT(2) 
PARAMETRIC_REPRESENTATION_CONTEXT() REPRESENTATION_CONTEXT('2D SPACE',''
  ) );
#104 = ORIENTED_EDGE('',*,*,#55,.T.);
#105 = ADVANCED_FACE('',(#106,#109),#43,.T.);
#106 = FACE_BOUND('',#107,.T.);
#107 = EDGE_LOOP('',(#108));
#108 = ORIENTED_EDGE('',*,*,#21,.T.);
#109 = FACE_BOUND('',#110,.T.);
#110 = EDGE_LOOP('',(#111));
#111 = ORIENTED_EDGE('',*,*,#112,.F.);
#112 = EDGE_CURVE('',#113,#113,#115,.T.);
#113 = VERTEX_POINT('',#114);
#114 = CARTESIAN_POINT('',(41.7195,39.6748,2.734219922584E-15));
#115 = SURFACE_CURVE('',#116,(#121,#128),.PCURVE_S1.);
#116 = CIRCLE('',#117,11.1633);
#117 = AXIS2_PLACEMENT_3D('',#118,#119,#120);
#118 = CARTESIAN_POINT('',(30.5562,39.6748,0.));
#119 = DIRECTION('',(6.123233995737E-17,1.,0.));
#120 = DIRECTION('',(1.,-6.123233995737E-17,0.));
#121 = PCURVE('',#43,#122);
#122 = DEFINITIONAL_REPRESENTATION('',(#123),#127);
#123 = CIRCLE('',#124,11.1633);
#124 = AXIS2_PLACEMENT_2D('',#125,#126);
#125 = CARTESIAN_POINT('',(0.,0.));
#126 = DIRECTION('',(1.,0.));
#127 = ( GEOMETRIC_REPRESENTATION_CONTEXT(2) 
PARAMETRIC_REPRESENTATION_CONTEXT() REPRESENTATION_CONTEXT('2D SPACE',''
  ) );
#128 = PCURVE('',#129,#134);
#129 = PLANE('',#130);
#130 = AXIS2_PLACEMENT_3D('',#131,#132,#133);
#131 = CARTESIAN_POINT('',(30.5562,39.6748,0.));
#132 = DIRECTION('',(6.123233995737E-17,1.,0.));
#133 = DIRECTION('',(1.,-6.123233995737E-17,0.));
#134 = DEFINITIONAL_REPRESENTATION('',(#135),#139);
#135 = CIRCLE('',#136,11.1633);
#136 = AXIS2_PLACEMENT_2D('',#137,#138);
#137 = CARTESIAN_POINT('',(0.,0.));
#138 = DIRECTION('',(1.,0.));
#139 = ( GEOMETRIC_REPRESENTATION_CONTEXT(2) 
PARAMETRIC_REPRESENTATION_CONTEXT() REPRESENTATION_CONTEXT('2D SPACE',''
  ) );
#140 = ADVANCED_FACE('',(#141,#144),#93,.F.);
#141 = FACE_BOUND('',#142,.F.);
#142 = EDGE_LOOP('',(#143));
#143 = ORIENTED_EDGE('',*,*,#78,.T.);
#144 = FACE_BOUND('',#145,.F.);
#145 = EDGE_LOOP('',(#146));
#146 = ORIENTED_EDGE('',*,*,#147,.F.);
#147 = EDGE_CURVE('',#148,#148,#150,.T.);
#148 = VERTEX_POINT('',#149);
#149 = CARTESIAN_POINT('',(41.7195,27.77236,2.734219922584E-15));
#150 = SURFACE_CURVE('',#151,(#156,#163),.PCURVE_S1.);
#151 = CIRCLE('',#152,11.1633);
#152 = AXIS2_PLACEMENT_3D('',#153,#154,#155);
#153 = CARTESIAN_POINT('',(30.5562,27.77236,0.));
#154 = DIRECTION('',(6.123233995737E-17,1.,0.));
#155 = DIRECTION('',(1.,-6.123233995737E-17,0.));
#156 = PCURVE('',#93,#157);
#157 = DEFINITIONAL_REPRESENTATION('',(#158),#162);
#158 = CIRCLE('',#159,11.1633);
#159 = AXIS2_PLACEMENT_2D('',#160,#161);
#160 = CARTESIAN_POINT('',(2.175409717515E-31,0.));
#161 = DIRECTION('',(1.,0.));
#162 = ( GEOMETRIC_REPRESENTATION_CONTEXT(2) 
PARAMETRIC_REPRESENTATION_CONTEXT() REPRESENTATION_CONTEXT('2D SPACE',''
  ) );
#163 = PCURVE('',#164,#169);
#164 = CYLINDRICAL_SURFACE('',#165,11.1633);
#165 = AXIS2_PLACEMENT_3D('',#166,#167,#168);
#166 = CARTESIAN_POINT('',(30.5562,-22.3266,0.));
#167 = DIRECTION('',(6.123233995737E-17,1.,0.));
#168 = DIRECTION('',(1.,-6.123233995737E-17,0.));
#169 = DEFINITIONAL_REPRESENTATION('',(#170),#174);
#170 = LINE('',#171,#172);
#171 = CARTESIAN_POINT('',(0.,50.09896));
#172 = VECTOR('',#173,1.);
#173 = DIRECTION('',(1.,0.));
#174 = ( GEOMETRIC_REPRESENTATION_CONTEXT(2) 
PARAMETRIC_REPRESENTATION_CONTEXT() REPRESENTATION_CONTEXT('2D SPACE',''
  ) );
#175 = ADVANCED_FACE('',(#176),#129,.T.);
#176 = FACE_BOUND('',#177,.T.);
#177 = EDGE_LOOP('',(#178));
#178 = ORIENTED_EDGE('',*,*,#112,.T.);
#179 = ADVANCED_FACE('',(#180),#164,.T.);
#180 = FACE_BOUND('',#181,.T.);
#181 = EDGE_LOOP('',(#182,#274,#336,#357,#358));
#182 = ORIENTED_EDGE('',*,*,#183,.T.);
#183 = EDGE_CURVE('',#184,#186,#188,.T.);
#184 = VERTEX_POINT('',#185);
#185 = CARTESIAN_POINT('',(41.7195,-11.1633,2.734219922584E-15));
#186 = VERTEX_POINT('',#187);
#187 = CARTESIAN_POINT('',(30.5562,2.734219922584E-15,11.1633));
#188 = SURFACE_CURVE('',#189,(#194,#228),.PCURVE_S1.);
#189 = ELLIPSE('',#190,15.78729026084,11.1633);
#190 = AXIS2_PLACEMENT_3D('',#191,#192,#193);
#191 = CARTESIAN_POINT('',(30.5562,0.,0.));
#192 = DIRECTION('',(0.707106781187,0.707106781187,0.));
#193 = DIRECTION('',(0.707106781187,-0.707106781187,0.));
#194 = PCURVE('',#164,#195);
#195 = DEFINITIONAL_REPRESENTATION('',(#196),#227);
#196 = B_SPLINE_CURVE_WITH_KNOTS('',8,(#197,#198,#199,#200,#201,#202,
    #203,#204,#205,#206,#207,#208,#209,#210,#211,#212,#213,#214,#215,
    #216,#217,#218,#219,#220,#221,#222,#223,#224,#225,#226),
  .UNSPECIFIED.,.F.,.F.,(9,7,7,7,9),(6.28318530718,7.853981633974,
    9.032078879071,10.799224746715,10.995574287564),.UNSPECIFIED.);
#197 = CARTESIAN_POINT('',(-8.881784197001E-16,11.1633));
#198 = CARTESIAN_POINT('',(0.196349540849,11.1633));
#199 = CARTESIAN_POINT('',(0.39269908169,11.655163660562));
#200 = CARTESIAN_POINT('',(0.589048622558,12.638886803277));
#201 = CARTESIAN_POINT('',(0.785398163378,14.074032789646));
#202 = CARTESIAN_POINT('',(0.98174770425,15.879646211126));
#203 = CARTESIAN_POINT('',(1.178097245091,17.94278182084));
#204 = CARTESIAN_POINT('',(1.374446785946,20.134691170636));
#205 = CARTESIAN_POINT('',(1.718058482432,23.970531622023));
#206 = CARTESIAN_POINT('',(1.865320638069,25.614462642411));
#207 = CARTESIAN_POINT('',(2.012582793705,27.204072417821));
#208 = CARTESIAN_POINT('',(2.159844949343,28.685025199152));
#209 = CARTESIAN_POINT('',(2.307107104981,30.006782350045));
#210 = CARTESIAN_POINT('',(2.454369260617,31.126320342142));
#211 = CARTESIAN_POINT('',(2.601631416254,32.011038989594));
#212 = CARTESIAN_POINT('',(2.969786805347,33.583802478817));
#213 = CARTESIAN_POINT('',(3.190680038814,33.952331460002));
#214 = CARTESIAN_POINT('',(3.411573272212,33.675575360343));
#215 = CARTESIAN_POINT('',(3.632466505759,32.743208281513));
#216 = CARTESIAN_POINT('',(3.853359739122,31.215830629942));
#217 = CARTESIAN_POINT('',(4.074252972634,29.22003812709));
#218 = CARTESIAN_POINT('',(4.29514620608,26.922967697067));
#219 = CARTESIAN_POINT('',(4.540583132141,24.235727802284));
#220 = CARTESIAN_POINT('',(4.565126824748,23.965504452899));
#221 = CARTESIAN_POINT('',(4.589670517353,23.694028434408));
#222 = CARTESIAN_POINT('',(4.614214209959,23.421548352164));
#223 = CARTESIAN_POINT('',(4.638757902565,23.148314256301));
#224 = CARTESIAN_POINT('',(4.663301595171,22.874577163403));
#225 = CARTESIAN_POINT('',(4.687845287777,22.600588573629));
#226 = CARTESIAN_POINT('',(4.712388980383,22.326599986974));
#227 = ( GEOMETRIC_REPRESENTATION_CONTEXT(2) 
PARAMETRIC_REPRESENTATION_CONTEXT() REPRESENTATION_CONTEXT('2D SPACE',''
  ) );
#228 = PCURVE('',#229,#234);
#229 = CYLINDRICAL_SURFACE('',#230,11.1633);
#230 = AXIS2_PLACEMENT_3D('',#231,#232,#233);
#231 = CARTESIAN_POINT('',(0.,0.,0.));
#232 = DIRECTION('',(1.,0.,0.));
#233 = DIRECTION('',(-0.,0.,1.));
#234 = DEFINITIONAL_REPRESENTATION('',(#235),#273);
#235 = B_SPLINE_CURVE_WITH_KNOTS('',8,(#236,#237,#238,#239,#240,#241,
    #242,#243,#244,#245,#246,#247,#248,#249,#250,#251,#252,#253,#254,
    #255,#256,#257,#258,#259,#260,#261,#262,#263,#264,#265,#266,#267,
    #268,#269,#270,#271,#272),.UNSPECIFIED.,.F.,.F.,(9,7,7,7,7,9),(
    4.712388980385,6.28318530718,7.461282552276,8.344855486098,
    9.670214886831,10.995574287564),.UNSPECIFIED.);
#236 = CARTESIAN_POINT('',(0.,30.5562));
#237 = CARTESIAN_POINT('',(0.196349540849,32.748108829364));
#238 = CARTESIAN_POINT('',(0.392699081695,34.940018179101));
#239 = CARTESIAN_POINT('',(0.589048622556,37.003153788996));
#240 = CARTESIAN_POINT('',(0.785398163377,38.808767210047));
#241 = CARTESIAN_POINT('',(0.981747704246,40.243913196818));
#242 = CARTESIAN_POINT('',(1.178097245091,41.227636339382));
#243 = CARTESIAN_POINT('',(1.374446785946,41.7195));
#244 = CARTESIAN_POINT('',(1.718058482432,41.7195));
#245 = CARTESIAN_POINT('',(1.865320638068,41.442825960799));
#246 = CARTESIAN_POINT('',(2.01258279371,40.889484698069));
#247 = CARTESIAN_POINT('',(2.159844949344,40.072255794526));
#248 = CARTESIAN_POINT('',(2.307107104978,39.016773793081));
#249 = CARTESIAN_POINT('',(2.454369260619,37.759920390582));
#250 = CARTESIAN_POINT('',(2.601631416254,36.347004738956));
#251 = CARTESIAN_POINT('',(2.859340188619,33.689113876695));
#252 = CARTESIAN_POINT('',(2.969786805346,32.490461312516));
#253 = CARTESIAN_POINT('',(3.080233422076,31.253425922028));
#254 = CARTESIAN_POINT('',(3.190680038802,30.000731181716));
#255 = CARTESIAN_POINT('',(3.301126655529,28.755824211077));
#256 = CARTESIAN_POINT('',(3.411573272259,27.541947007802));
#257 = CARTESIAN_POINT('',(3.522019888985,26.381220498738));
#258 = CARTESIAN_POINT('',(3.798136430805,23.662811271369));
#259 = CARTESIAN_POINT('',(3.963806355876,22.196831986073));
#260 = CARTESIAN_POINT('',(4.129476281022,20.964135248554));
#261 = CARTESIAN_POINT('',(4.295146206003,20.023268833634));
#262 = CARTESIAN_POINT('',(4.460816131214,19.417135602502));
#263 = CARTESIAN_POINT('',(4.626486056245,19.168374200815));
#264 = CARTESIAN_POINT('',(4.792155981355,19.278076959787));
#265 = CARTESIAN_POINT('',(5.123495831538,20.17682326264));
#266 = CARTESIAN_POINT('',(5.289165756625,20.965866866943));
#267 = CARTESIAN_POINT('',(5.454835681723,22.0757856263));
#268 = CARTESIAN_POINT('',(5.620505606764,23.467901111732));
#269 = CARTESIAN_POINT('',(5.786175531906,25.085280468904));
#270 = CARTESIAN_POINT('',(5.951845456986,26.857353726073));
#271 = CARTESIAN_POINT('',(6.117515382088,28.706776925224));
#272 = CARTESIAN_POINT('',(6.28318530718,30.5562));
#273 = ( GEOMETRIC_REPRESENTATION_CONTEXT(2) 
PARAMETRIC_REPRESENTATION_CONTEXT() REPRESENTATION_CONTEXT('2D SPACE',''
  ) );
#274 = ORIENTED_EDGE('',*,*,#275,.T.);
#275 = EDGE_CURVE('',#186,#184,#276,.T.);
#276 = SURFACE_CURVE('',#277,(#282,#295),.PCURVE_S1.);
#277 = ELLIPSE('',#278,15.78729026084,11.1633);
#278 = AXIS2_PLACEMENT_3D('',#279,#280,#281);
#279 = CARTESIAN_POINT('',(30.5562,0.,0.));
#280 = DIRECTION('',(0.707106781187,0.707106781187,0.));
#281 = DIRECTION('',(0.707106781187,-0.707106781187,0.));
#282 = PCURVE('',#164,#283);
#283 = DEFINITIONAL_REPRESENTATION('',(#284),#294);
#284 = B_SPLINE_CURVE_WITH_KNOTS('',8,(#285,#286,#287,#288,#289,#290,
    #291,#292,#293),.UNSPECIFIED.,.F.,.F.,(9,9),(4.712388980385,
    6.28318530718),.PIECEWISE_BEZIER_KNOTS.);
#285 = CARTESIAN_POINT('',(4.712388980383,22.326599986974));
#286 = CARTESIAN_POINT('',(4.908738521229,20.134691293728));
#287 = CARTESIAN_POINT('',(5.105088062075,17.942782800039));
#288 = CARTESIAN_POINT('',(5.301437602921,15.87964250276));
#289 = CARTESIAN_POINT('',(5.497787143752,14.074037720282));
#290 = CARTESIAN_POINT('',(5.694136684643,12.63888382342));
#291 = CARTESIAN_POINT('',(5.890486225469,11.655164360047));
#292 = CARTESIAN_POINT('',(6.08683576633,11.1633));
#293 = CARTESIAN_POINT('',(6.28318530718,11.1633));
#294 = ( GEOMETRIC_REPRESENTATION_CONTEXT(2) 
PARAMETRIC_REPRESENTATION_CONTEXT() REPRESENTATION_CONTEXT('2D SPACE',''
  ) );
#295 = PCURVE('',#229,#296);
#296 = DEFINITIONAL_REPRESENTATION('',(#297),#335);
#297 = B_SPLINE_CURVE_WITH_KNOTS('',8,(#298,#299,#300,#301,#302,#303,
    #304,#305,#306,#307,#308,#309,#310,#311,#312,#313,#314,#315,#316,
    #317,#318,#319,#320,#321,#322,#323,#324,#325,#326,#327,#328,#329,
    #330,#331,#332,#333,#334),.UNSPECIFIED.,.F.,.F.,(9,7,7,7,7,9),(
    4.712388980385,6.28318530718,7.461282552276,8.344855486098,
    9.670214886831,10.995574287564),.UNSPECIFIED.);
#298 = CARTESIAN_POINT('',(0.,30.5562));
#299 = CARTESIAN_POINT('',(0.196349540849,32.748108829364));
#300 = CARTESIAN_POINT('',(0.392699081695,34.940018179101));
#301 = CARTESIAN_POINT('',(0.589048622556,37.003153788996));
#302 = CARTESIAN_POINT('',(0.785398163377,38.808767210047));
#303 = CARTESIAN_POINT('',(0.981747704246,40.243913196818));
#304 = CARTESIAN_POINT('',(1.178097245091,41.227636339382));
#305 = CARTESIAN_POINT('',(1.374446785946,41.7195));
#306 = CARTESIAN_POINT('',(1.718058482432,41.7195));
#307 = CARTESIAN_POINT('',(1.865320638068,41.442825960799));
#308 = CARTESIAN_POINT('',(2.01258279371,40.889484698069));
#309 = CARTESIAN_POINT('',(2.159844949344,40.072255794526));
#310 = CARTESIAN_POINT('',(2.307107104978,39.016773793081));
#311 = CARTESIAN_POINT('',(2.454369260619,37.759920390582));
#312 = CARTESIAN_POINT('',(2.601631416254,36.347004738956));
#313 = CARTESIAN_POINT('',(2.859340188619,33.689113876695));
#314 = CARTESIAN_POINT('',(2.969786805346,32.490461312516));
#315 = CARTESIAN_POINT('',(3.080233422076,31.253425922028));
#316 = CARTESIAN_POINT('',(3.190680038802,30.000731181716));
#317 = CARTESIAN_POINT('',(3.301126655529,28.755824211077));
#318 = CARTESIAN_POINT('',(3.411573272259,27.541947007802));
#319 = CARTESIAN_POINT('',(3.522019888985,26.381220498738));
#320 = CARTESIAN_POINT('',(3.798136430805,23.662811271369));
#321 = CARTESIAN_POINT('',(3.963806355876,22.196831986073));
#322 = CARTESIAN_POINT('',(4.129476281022,20.964135248554));
#323 = CARTESIAN_POINT('',(4.295146206003,20.023268833634));
#324 = CARTESIAN_POINT('',(4.460816131214,19.417135602502));
#325 = CARTESIAN_POINT('',(4.626486056245,19.168374200815));
#326 = CARTESIAN_POINT('',(4.792155981355,19.278076959787));
#327 = CARTESIAN_POINT('',(5.123495831538,20.17682326264));
#328 = CARTESIAN_POINT('',(5.289165756625,20.965866866943));
#329 = CARTESIAN_POINT('',(5.454835681723,22.0757856263));
#330 = CARTESIAN_POINT('',(5.620505606764,23.467901111732));
#331 = CARTESIAN_POINT('',(5.786175531906,25.085280468904));
#332 = CARTESIAN_POINT('',(5.951845456986,26.857353726073));
#333 = CARTESIAN_POINT('',(6.117515382088,28.706776925224));
#334 = CARTESIAN_POINT('',(6.28318530718,30.5562));
#335 = ( GEOMETRIC_REPRESENTATION_CONTEXT(2) 
PARAMETRIC_REPRESENTATION_CONTEXT() REPRESENTATION_CONTEXT('2D SPACE',''
  ) );
#336 = ORIENTED_EDGE('',*,*,#337,.T.);
#337 = EDGE_CURVE('',#184,#148,#338,.T.);
#338 = SEAM_CURVE('',#339,(#343,#350),.PCURVE_S1.);
#339 = LINE('',#340,#341);
#340 = CARTESIAN_POINT('',(41.7195,-22.3266,2.734219922584E-15));
#341 = VECTOR('',#342,1.);
#342 = DIRECTION('',(6.123233995737E-17,1.,6.016155777704E-49));
#343 = PCURVE('',#164,#344);
#344 = DEFINITIONAL_REPRESENTATION('',(#345),#349);
#345 = LINE('',#346,#347);
#346 = CARTESIAN_POINT('',(0.,-0.));
#347 = VECTOR('',#348,1.);
#348 = DIRECTION('',(0.,1.));
#349 = ( GEOMETRIC_REPRESENTATION_CONTEXT(2) 
PARAMETRIC_REPRESENTATION_CONTEXT() REPRESENTATION_CONTEXT('2D SPACE',''
  ) );
#350 = PCURVE('',#164,#351);
#351 = DEFINITIONAL_REPRESENTATION('',(#352),#356);
#352 = LINE('',#353,#354);
#353 = CARTESIAN_POINT('',(6.28318530718,-0.));
#354 = VECTOR('',#355,1.);
#355 = DIRECTION('',(0.,1.));
#356 = ( GEOMETRIC_REPRESENTATION_CONTEXT(2) 
PARAMETRIC_REPRESENTATION_CONTEXT() REPRESENTATION_CONTEXT('2D SPACE',''
  ) );
#357 = ORIENTED_EDGE('',*,*,#147,.F.);
#358 = ORIENTED_EDGE('',*,*,#337,.F.);
#359 = ADVANCED_FACE('',(#360),#229,.T.);
#360 = FACE_BOUND('',#361,.T.);
#361 = EDGE_LOOP('',(#362,#385,#386,#387,#388));
#362 = ORIENTED_EDGE('',*,*,#363,.T.);
#363 = EDGE_CURVE('',#364,#186,#366,.T.);
#364 = VERTEX_POINT('',#365);
#365 = CARTESIAN_POINT('',(0.,2.734219922584E-15,11.1633));
#366 = SEAM_CURVE('',#367,(#371,#378),.PCURVE_S1.);
#367 = LINE('',#368,#369);
#368 = CARTESIAN_POINT('',(0.,2.734219922584E-15,11.1633));
#369 = VECTOR('',#370,1.);
#370 = DIRECTION('',(1.,0.,0.));
#371 = PCURVE('',#229,#372);
#372 = DEFINITIONAL_REPRESENTATION('',(#373),#377);
#373 = LINE('',#374,#375);
#374 = CARTESIAN_POINT('',(6.28318530718,-0.));
#375 = VECTOR('',#376,1.);
#376 = DIRECTION('',(0.,1.));
#377 = ( GEOMETRIC_REPRESENTATION_CONTEXT(2) 
PARAMETRIC_REPRESENTATION_CONTEXT() REPRESENTATION_CONTEXT('2D SPACE',''
  ) );
#378 = PCURVE('',#229,#379);
#379 = DEFINITIONAL_REPRESENTATION('',(#380),#384);
#380 = LINE('',#381,#382);
#381 = CARTESIAN_POINT('',(0.,-0.));
#382 = VECTOR('',#383,1.);
#383 = DIRECTION('',(0.,1.));
#384 = ( GEOMETRIC_REPRESENTATION_CONTEXT(2) 
PARAMETRIC_REPRESENTATION_CONTEXT() REPRESENTATION_CONTEXT('2D SPACE',''
  ) );
#385 = ORIENTED_EDGE('',*,*,#183,.F.);
#386 = ORIENTED_EDGE('',*,*,#275,.F.);
#387 = ORIENTED_EDGE('',*,*,#363,.F.);
#388 = ORIENTED_EDGE('',*,*,#389,.T.);
#389 = EDGE_CURVE('',#364,#364,#390,.T.);
#390 = SURFACE_CURVE('',#391,(#396,#403),.PCURVE_S1.);
#391 = CIRCLE('',#392,11.1633);
#392 = AXIS2_PLACEMENT_3D('',#393,#394,#395);
#393 = CARTESIAN_POINT('',(0.,0.,0.));
#394 = DIRECTION('',(1.,0.,0.));
#395 = DIRECTION('',(-0.,0.,1.));
#396 = PCURVE('',#229,#397);
#397 = DEFINITIONAL_REPRESENTATION('',(#398),#402);
#398 = LINE('',#399,#400);
#399 = CARTESIAN_POINT('',(0.,0.));
#400 = VECTOR('',#401,1.);
#401 = DIRECTION('',(1.,0.));
#402 = ( GEOMETRIC_REPRESENTATION_CONTEXT(2) 
PARAMETRIC_REPRESENTATION_CONTEXT() REPRESENTATION_CONTEXT('2D SPACE',''
  ) );
#403 = PCURVE('',#404,#409);
#404 = PLANE('',#405);
#405 = AXIS2_PLACEMENT_3D('',#406,#407,#408);
#406 = CARTESIAN_POINT('',(0.,0.,0.));
#407 = DIRECTION('',(1.,0.,0.));
#408 = DIRECTION('',(-0.,0.,1.));
#409 = DEFINITIONAL_REPRESENTATION('',(#410),#414);
#410 = CIRCLE('',#411,11.1633);
#411 = AXIS2_PLACEMENT_2D('',#412,#413);
#412 = CARTESIAN_POINT('',(0.,0.));
#413 = DIRECTION('',(1.,0.));
#414 = ( GEOMETRIC_REPRESENTATION_CONTEXT(2) 
PARAMETRIC_REPRESENTATION_CONTEXT() REPRESENTATION_CONTEXT('2D SPACE',''
  ) );
#415 = ADVANCED_FACE('',(#416,#419),#404,.F.);
#416 = FACE_BOUND('',#417,.F.);
#417 = EDGE_LOOP('',(#418));
#418 = ORIENTED_EDGE('',*,*,#389,.T.);
#419 = FACE_BOUND('',#420,.F.);
#420 = EDGE_LOOP('',(#421));
#421 = ORIENTED_EDGE('',*,*,#422,.F.);
#422 = EDGE_CURVE('',#423,#423,#425,.T.);
#423 = VERTEX_POINT('',#424);
#424 = CARTESIAN_POINT('',(0.,1.860140516161E-15,7.5946));
#425 = SURFACE_CURVE('',#426,(#431,#438),.PCURVE_S1.);
#426 = CIRCLE('',#427,7.5946);
#427 = AXIS2_PLACEMENT_3D('',#428,#429,#430);
#428 = CARTESIAN_POINT('',(0.,0.,0.));
#429 = DIRECTION('',(1.,0.,0.));
#430 = DIRECTION('',(-0.,0.,1.));
#431 = PCURVE('',#404,#432);
#432 = DEFINITIONAL_REPRESENTATION('',(#433),#437);
#433 = CIRCLE('',#434,7.5946);
#434 = AXIS2_PLACEMENT_2D('',#435,#436);
#435 = CARTESIAN_POINT('',(0.,0.));
#436 = DIRECTION('',(1.,0.));
#437 = ( GEOMETRIC_REPRESENTATION_CONTEXT(2) 
PARAMETRIC_REPRESENTATION_CONTEXT() REPRESENTATION_CONTEXT('2D SPACE',''
  ) );
#438 = PCURVE('',#439,#444);
#439 = CYLINDRICAL_SURFACE('',#440,7.5946);
#440 = AXIS2_PLACEMENT_3D('',#441,#442,#443);
#441 = CARTESIAN_POINT('',(-8.89,0.,0.));
#442 = DIRECTION('',(1.,0.,0.));
#443 = DIRECTION('',(-0.,0.,1.));
#444 = DEFINITIONAL_REPRESENTATION('',(#445),#449);
#445 = LINE('',#446,#447);
#446 = CARTESIAN_POINT('',(0.,8.89));
#447 = VECTOR('',#448,1.);
#448 = DIRECTION('',(1.,0.));
#449 = ( GEOMETRIC_REPRESENTATION_CONTEXT(2) 
PARAMETRIC_REPRESENTATION_CONTEXT() REPRESENTATION_CONTEXT('2D SPACE',''
  ) );
#450 = ADVANCED_FACE('',(#451),#439,.T.);
#451 = FACE_BOUND('',#452,.T.);
#452 = EDGE_LOOP('',(#453,#454,#477,#504));
#453 = ORIENTED_EDGE('',*,*,#422,.F.);
#454 = ORIENTED_EDGE('',*,*,#455,.F.);
#455 = EDGE_CURVE('',#456,#423,#458,.T.);
#456 = VERTEX_POINT('',#457);
#457 = CARTESIAN_POINT('',(-8.89,1.860140516161E-15,7.5946));
#458 = SEAM_CURVE('',#459,(#463,#470),.PCURVE_S1.);
#459 = LINE('',#460,#461);
#460 = CARTESIAN_POINT('',(-8.89,1.860140516161E-15,7.5946));
#461 = VECTOR('',#462,1.);
#462 = DIRECTION('',(1.,0.,0.));
#463 = PCURVE('',#439,#464);
#464 = DEFINITIONAL_REPRESENTATION('',(#465),#469);
#465 = LINE('',#466,#467);
#466 = CARTESIAN_POINT('',(6.28318530718,-0.));
#467 = VECTOR('',#468,1.);
#468 = DIRECTION('',(0.,1.));
#469 = ( GEOMETRIC_REPRESENTATION_CONTEXT(2) 
PARAMETRIC_REPRESENTATION_CONTEXT() REPRESENTATION_CONTEXT('2D SPACE',''
  ) );
#470 = PCURVE('',#439,#471);
#471 = DEFINITIONAL_REPRESENTATION('',(#472),#476);
#472 = LINE('',#473,#474);
#473 = CARTESIAN_POINT('',(0.,-0.));
#474 = VECTOR('',#475,1.);
#475 = DIRECTION('',(0.,1.));
#476 = ( GEOMETRIC_REPRESENTATION_CONTEXT(2) 
PARAMETRIC_REPRESENTATION_CONTEXT() REPRESENTATION_CONTEXT('2D SPACE',''
  ) );
#477 = ORIENTED_EDGE('',*,*,#478,.T.);
#478 = EDGE_CURVE('',#456,#456,#479,.T.);
#479 = SURFACE_CURVE('',#480,(#485,#492),.PCURVE_S1.);
#480 = CIRCLE('',#481,7.5946);
#481 = AXIS2_PLACEMENT_3D('',#482,#483,#484);
#482 = CARTESIAN_POINT('',(-8.89,0.,0.));
#483 = DIRECTION('',(1.,0.,0.));
#484 = DIRECTION('',(-0.,0.,1.));
#485 = PCURVE('',#439,#486);
#486 = DEFINITIONAL_REPRESENTATION('',(#487),#491);
#487 = LINE('',#488,#489);
#488 = CARTESIAN_POINT('',(0.,0.));
#489 = VECTOR('',#490,1.);
#490 = DIRECTION('',(1.,0.));
#491 = ( GEOMETRIC_REPRESENTATION_CONTEXT(2) 
PARAMETRIC_REPRESENTATION_CONTEXT() REPRESENTATION_CONTEXT('2D SPACE',''
  ) );
#492 = PCURVE('',#493,#498);
#493 = PLANE('',#494);
#494 = AXIS2_PLACEMENT_3D('',#495,#496,#497);
#495 = CARTESIAN_POINT('',(-8.89,0.,0.));
#496 = DIRECTION('',(1.,0.,0.));
#497 = DIRECTION('',(-0.,0.,1.));
#498 = DEFINITIONAL_REPRESENTATION('',(#499),#503);
#499 = CIRCLE('',#500,7.5946);
#500 = AXIS2_PLACEMENT_2D('',#501,#502);
#501 = CARTESIAN_POINT('',(0.,0.));
#502 = DIRECTION('',(1.,0.));
#503 = ( GEOMETRIC_REPRESENTATION_CONTEXT(2) 
PARAMETRIC_REPRESENTATION_CONTEXT() REPRESENTATION_CONTEXT('2D SPACE',''
  ) );
#504 = ORIENTED_EDGE('',*,*,#455,.T.);
#505 = ADVANCED_FACE('',(#506),#493,.F.);
#506 = FACE_BOUND('',#507,.T.);
#507 = EDGE_LOOP('',(#508));
#508 = ORIENTED_EDGE('',*,*,#478,.F.);
#509 = ( GEOMETRIC_REPRESENTATION_CONTEXT(3) 
GLOBAL_UNCERTAINTY_ASSIGNED_CONTEXT((#513)) GLOBAL_UNIT_ASSIGNED_CONTEXT
((#510,#511,#512)) REPRESENTATION_CONTEXT('Context #1',
  '3D Context with UNIT and UNCERTAINTY') );
#510 = ( LENGTH_UNIT() NAMED_UNIT(*) SI_UNIT(.MILLI.,.METRE.) );
#511 = ( NAMED_UNIT(*) PLANE_ANGLE_UNIT() SI_UNIT($,.RADIAN.) );
#512 = ( NAMED_UNIT(*) SI_UNIT($,.STERADIAN.) SOLID_ANGLE_UNIT() );
#513 = UNCERTAINTY_MEASURE_WITH_UNIT(LENGTH_MEASURE(1.E-07),#510,
  'distance_accuracy_value','confusion accuracy');
#514 = PRODUCT_RELATED_PRODUCT_CATEGORY('part',$,(#7));
ENDSEC;
END-ISO-10303-21;
