ISO-10303-21;
HEADER;
FILE_DESCRIPTION(('Open CASCADE Model'),'2;1');
FILE_NAME('Open CASCADE Shape Model','2026-08-22T13:44:48',('Author'),(
    'Open CASCADE'),'Open CASCADE STEP processor 7.8','Open CASCADE 7.8'
  ,'Unknown');
FILE_SCHEMA(('AUTOMOTIVE_DESIGN { 1 0 10303 214 1 1 1 1 }'));
ENDSEC;
DATA;
#1 = APPLICATION_PROTOCOL_DEFINITION('international standard',
  'automotive_design',2000,#2);
#2 = APPLICATION_CONTEXT(
  'core data for automotive mechanical design processes');
#3 = SHAPE_DEFINITION_REPRESENTATION(#4,#10);
#4 = PRODUCT_DEFINITION_SHAPE('','',#5);
#5 = PRODUCT_DEFINITION('design','',#6,#9);
#6 = PRODUCT_DEFINITION_FORMATION('','',#7);
#7 = PRODUCT('M85049-89_19F03','M85049-89_19F03','',(#8));
#8 = PRODUCT_CONTEXT('',#2,'mechanical');
#9 = PRODUCT_DEFINITION_CONTEXT('part definition',#2,'design');
#10 = ADVANCED_BREP_SHAPE_REPRESENTATION('',(#11,#15),#488);
#11 = AXIS2_PLACEMENT_3D('',#12,#13,#14);
#12 = CARTESIAN_POINT('',(0.,0.,0.));
#13 = DIRECTION('',(0.,0.,1.));
#14 = DIRECTION('',(1.,0.,-0.));
#15 = MANIFOLD_SOLID_BREP('',#16);
#16 = CLOSED_SHELL('',(#17,#105,#140,#175,#179,#338,#394,#429,#484));
#17 = ADVANCED_FACE('',(#18),#31,.T.);
#18 = FACE_BOUND('',#19,.T.);
#19 = EDGE_LOOP('',(#20,#54,#77,#104));
#20 = ORIENTED_EDGE('',*,*,#21,.F.);
#21 = EDGE_CURVE('',#22,#22,#24,.T.);
#22 = VERTEX_POINT('',#23);
#23 = CARTESIAN_POINT('',(29.83378440717,33.76576301522,
    -4.728116362148E-15));
#24 = SURFACE_CURVE('',#25,(#30,#42),.PCURVE_S1.);
#25 = CIRCLE('',#26,19.304);
#26 = AXIS2_PLACEMENT_3D('',#27,#28,#29);
#27 = CARTESIAN_POINT('',(43.483773711195,20.115773711195,0.));
#28 = DIRECTION('',(0.707106781187,0.707106781187,0.));
#29 = DIRECTION('',(-0.707106781187,0.707106781187,0.));
#30 = PCURVE('',#31,#36);
#31 = CYLINDRICAL_SURFACE('',#32,19.304);
#32 = AXIS2_PLACEMENT_3D('',#33,#34,#35);
#33 = CARTESIAN_POINT('',(36.443252912277,13.075252912277,0.));
#34 = DIRECTION('',(0.707106781187,0.707106781187,0.));
#35 = DIRECTION('',(-0.707106781187,0.707106781187,0.));
#36 = DEFINITIONAL_REPRESENTATION('',(#37),#41);
#37 = LINE('',#38,#39);
#38 = CARTESIAN_POINT('',(0.,9.9568));
#39 = VECTOR('',#40,1.);
#40 = DIRECTION('',(1.,0.));
#41 = ( GEOMETRIC_REPRESENTATION_CONTEXT(2) 
PARAMETRIC_REPRESENTATION_CONTEXT() REPRESENTATION_CONTEXT('2D SPACE',''
  ) );
#42 = PCURVE('',#43,#48);
#43 = PLANE('',#44);
#44 = AXIS2_PLACEMENT_3D('',#45,#46,#47);
#45 = CARTESIAN_POINT('',(43.483773711195,20.115773711195,0.));
#46 = DIRECTION('',(0.707106781187,0.707106781187,0.));
#47 = DIRECTION('',(-0.707106781187,0.707106781187,0.));
#48 = DEFINITIONAL_REPRESENTATION('',(#49),#53);
#49 = CIRCLE('',#50,19.304);
#50 = AXIS2_PLACEMENT_2D('',#51,#52);
#51 = CARTESIAN_POINT('',(0.,0.));
#52 = DIRECTION('',(1.,0.));
#53 = ( GEOMETRIC_REPRESENTATION_CONTEXT(2) 
PARAMETRIC_REPRESENTATION_CONTEXT() REPRESENTATION_CONTEXT('2D SPACE',''
  ) );
#54 = ORIENTED_EDGE('',*,*,#55,.F.);
#55 = EDGE_CURVE('',#56,#22,#58,.T.);
#56 = VERTEX_POINT('',#57);
#57 = CARTESIAN_POINT('',(22.793263608252,26.725242216302,
    -4.728116362148E-15));
#58 = SEAM_CURVE('',#59,(#63,#70),.PCURVE_S1.);
#59 = LINE('',#60,#61);
#60 = CARTESIAN_POINT('',(22.793263608252,26.725242216302,
    -4.728116362148E-15));
#61 = VECTOR('',#62,1.);
#62 = DIRECTION('',(0.707106781187,0.707106781187,-1.101497328414E-32));
#63 = PCURVE('',#31,#64);
#64 = DEFINITIONAL_REPRESENTATION('',(#65),#69);
#65 = LINE('',#66,#67);
#66 = CARTESIAN_POINT('',(6.28318530718,-0.));
#67 = VECTOR('',#68,1.);
#68 = DIRECTION('',(0.,1.));
#69 = ( GEOMETRIC_REPRESENTATION_CONTEXT(2) 
PARAMETRIC_REPRESENTATION_CONTEXT() REPRESENTATION_CONTEXT('2D SPACE',''
  ) );
#70 = PCURVE('',#31,#71);
#71 = DEFINITIONAL_REPRESENTATION('',(#72),#76);
#72 = LINE('',#73,#74);
#73 = CARTESIAN_POINT('',(0.,-0.));
#74 = VECTOR('',#75,1.);
#75 = DIRECTION('',(0.,1.));
#76 = ( GEOMETRIC_REPRESENTATION_CONTEXT(2) 
PARAMETRIC_REPRESENTATION_CONTEXT() REPRESENTATION_CONTEXT('2D SPACE',''
  ) );
#77 = ORIENTED_EDGE('',*,*,#78,.T.);
#78 = EDGE_CURVE('',#56,#56,#79,.T.);
#79 = SURFACE_CURVE('',#80,(#85,#92),.PCURVE_S1.);
#80 = CIRCLE('',#81,19.304);
#81 = AXIS2_PLACEMENT_3D('',#82,#83,#84);
#82 = CARTESIAN_POINT('',(36.443252912277,13.075252912277,0.));
#83 = DIRECTION('',(0.707106781187,0.707106781187,0.));
#84 = DIRECTION('',(-0.707106781187,0.707106781187,0.));
#85 = PCURVE('',#31,#86);
#86 = DEFINITIONAL_REPRESENTATION('',(#87),#91);
#87 = LINE('',#88,#89);
#88 = CARTESIAN_POINT('',(0.,0.));
#89 = VECTOR('',#90,1.);
#90 = DIRECTION('',(1.,0.));
#91 = ( GEOMETRIC_REPRESENTATION_CONTEXT(2) 
PARAMETRIC_REPRESENTATION_CONTEXT() REPRESENTATION_CONTEXT('2D SPACE',''
  ) );
#92 = PCURVE('',#93,#98);
#93 = PLANE('',#94);
#94 = AXIS2_PLACEMENT_3D('',#95,#96,#97);
#95 = CARTESIAN_POINT('',(36.443252912277,13.075252912277,0.));
#96 = DIRECTION('',(0.707106781187,0.707106781187,0.));
#97 = DIRECTION('',(-0.707106781187,0.707106781187,0.));
#98 = DEFINITIONAL_REPRESENTATION('',(#99),#103);
#99 = CIRCLE('',#100,19.304);
#100 = AXIS2_PLACEMENT_2D('',#101,#102);
#101 = CARTESIAN_POINT('',(0.,0.));
#102 = DIRECTION('',(1.,0.));
#103 = ( GEOMETRIC_REPRESENTATION_CONTEXT(2) 
PARAMETRIC_REPRESENTATION_CONTEXT() REPRESENTATION_CONTEXT('2D SPACE',''
  ) );
#104 = ORIENTED_EDGE('',*,*,#55,.T.);
#105 = ADVANCED_FACE('',(#106,#109),#43,.T.);
#106 = FACE_BOUND('',#107,.T.);
#107 = EDGE_LOOP('',(#108));
#108 = ORIENTED_EDGE('',*,*,#21,.T.);
#109 = FACE_BOUND('',#110,.T.);
#110 = EDGE_LOOP('',(#111));
#111 = ORIENTED_EDGE('',*,*,#112,.F.);
#112 = EDGE_CURVE('',#113,#113,#115,.T.);
#113 = VERTEX_POINT('',#114);
#114 = CARTESIAN_POINT('',(32.572762524096,31.026784898294,
    -3.779382486849E-15));
#115 = SURFACE_CURVE('',#116,(#121,#128),.PCURVE_S1.);
#116 = CIRCLE('',#117,15.4305);
#117 = AXIS2_PLACEMENT_3D('',#118,#119,#120);
#118 = CARTESIAN_POINT('',(43.483773711195,20.115773711195,0.));
#119 = DIRECTION('',(0.707106781187,0.707106781187,0.));
#120 = DIRECTION('',(-0.707106781187,0.707106781187,0.));
#121 = PCURVE('',#43,#122);
#122 = DEFINITIONAL_REPRESENTATION('',(#123),#127);
#123 = CIRCLE('',#124,15.4305);
#124 = AXIS2_PLACEMENT_2D('',#125,#126);
#125 = CARTESIAN_POINT('',(0.,0.));
#126 = DIRECTION('',(1.,0.));
#127 = ( GEOMETRIC_REPRESENTATION_CONTEXT(2) 
PARAMETRIC_REPRESENTATION_CONTEXT() REPRESENTATION_CONTEXT('2D SPACE',''
  ) );
#128 = PCURVE('',#129,#134);
#129 = PLANE('',#130);
#130 = AXIS2_PLACEMENT_3D('',#131,#132,#133);
#131 = CARTESIAN_POINT('',(43.483773711195,20.115773711195,0.));
#132 = DIRECTION('',(0.707106781187,0.707106781187,0.));
#133 = DIRECTION('',(-0.707106781187,0.707106781187,0.));
#134 = DEFINITIONAL_REPRESENTATION('',(#135),#139);
#135 = CIRCLE('',#136,15.4305);
#136 = AXIS2_PLACEMENT_2D('',#137,#138);
#137 = CARTESIAN_POINT('',(0.,0.));
#138 = DIRECTION('',(1.,0.));
#139 = ( GEOMETRIC_REPRESENTATION_CONTEXT(2) 
PARAMETRIC_REPRESENTATION_CONTEXT() REPRESENTATION_CONTEXT('2D SPACE',''
  ) );
#140 = ADVANCED_FACE('',(#141,#144),#93,.F.);
#141 = FACE_BOUND('',#142,.F.);
#142 = EDGE_LOOP('',(#143));
#143 = ORIENTED_EDGE('',*,*,#78,.T.);
#144 = FACE_BOUND('',#145,.F.);
#145 = EDGE_LOOP('',(#146));
#146 = ORIENTED_EDGE('',*,*,#147,.F.);
#147 = EDGE_CURVE('',#148,#148,#150,.T.);
#148 = VERTEX_POINT('',#149);
#149 = CARTESIAN_POINT('',(25.532241725178,23.986264099376,
    -3.779382486849E-15));
#150 = SURFACE_CURVE('',#151,(#156,#163),.PCURVE_S1.);
#151 = CIRCLE('',#152,15.4305);
#152 = AXIS2_PLACEMENT_3D('',#153,#154,#155);
#153 = CARTESIAN_POINT('',(36.443252912277,13.075252912277,0.));
#154 = DIRECTION('',(0.707106781187,0.707106781187,0.));
#155 = DIRECTION('',(-0.707106781187,0.707106781187,0.));
#156 = PCURVE('',#93,#157);
#157 = DEFINITIONAL_REPRESENTATION('',(#158),#162);
#158 = CIRCLE('',#159,15.4305);
#159 = AXIS2_PLACEMENT_2D('',#160,#161);
#160 = CARTESIAN_POINT('',(2.512147933894E-15,0.));
#161 = DIRECTION('',(1.,0.));
#162 = ( GEOMETRIC_REPRESENTATION_CONTEXT(2) 
PARAMETRIC_REPRESENTATION_CONTEXT() REPRESENTATION_CONTEXT('2D SPACE',''
  ) );
#163 = PCURVE('',#164,#169);
#164 = CYLINDRICAL_SURFACE('',#165,15.4305);
#165 = AXIS2_PLACEMENT_3D('',#166,#167,#168);
#166 = CARTESIAN_POINT('',(1.545977625802,-21.82202237419,0.));
#167 = DIRECTION('',(0.707106781187,0.707106781187,0.));
#168 = DIRECTION('',(-0.707106781187,0.707106781187,0.));
#169 = DEFINITIONAL_REPRESENTATION('',(#170),#174);
#170 = LINE('',#171,#172);
#171 = CARTESIAN_POINT('',(1.014653635757E-17,49.3522));
#172 = VECTOR('',#173,1.);
#173 = DIRECTION('',(1.,0.));
#174 = ( GEOMETRIC_REPRESENTATION_CONTEXT(2) 
PARAMETRIC_REPRESENTATION_CONTEXT() REPRESENTATION_CONTEXT('2D SPACE',''
  ) );
#175 = ADVANCED_FACE('',(#176),#129,.T.);
#176 = FACE_BOUND('',#177,.T.);
#177 = EDGE_LOOP('',(#178));
#178 = ORIENTED_EDGE('',*,*,#112,.T.);
#179 = ADVANCED_FACE('',(#180),#164,.T.);
#180 = FACE_BOUND('',#181,.T.);
#181 = EDGE_LOOP('',(#182,#246,#315,#336,#337));
#182 = ORIENTED_EDGE('',*,*,#183,.T.);
#183 = EDGE_CURVE('',#184,#186,#188,.T.);
#184 = VERTEX_POINT('',#185);
#185 = CARTESIAN_POINT('',(16.976477625802,15.4305,-3.779382486849E-15)
  );
#186 = VERTEX_POINT('',#187);
#187 = CARTESIAN_POINT('',(23.368,3.779382486849E-15,15.4305));
#188 = SURFACE_CURVE('',#189,(#194,#207),.PCURVE_S1.);
#189 = ELLIPSE('',#190,16.701852846612,15.4305);
#190 = AXIS2_PLACEMENT_3D('',#191,#192,#193);
#191 = CARTESIAN_POINT('',(23.368,0.,0.));
#192 = DIRECTION('',(0.923879532511,0.382683432365,0.));
#193 = DIRECTION('',(0.382683432365,-0.923879532511,0.));
#194 = PCURVE('',#164,#195);
#195 = DEFINITIONAL_REPRESENTATION('',(#196),#206);
#196 = B_SPLINE_CURVE_WITH_KNOTS('',8,(#197,#198,#199,#200,#201,#202,
    #203,#204,#205),.UNSPECIFIED.,.F.,.F.,(9,9),(9.424777960769,
    10.995574287564),.PIECEWISE_BEZIER_KNOTS.);
#197 = CARTESIAN_POINT('',(0.,37.252522374198));
#198 = CARTESIAN_POINT('',(0.196349540849,37.252522374198));
#199 = CARTESIAN_POINT('',(0.392699081699,36.970906938625));
#200 = CARTESIAN_POINT('',(0.589048622547,36.407678459936));
#201 = CARTESIAN_POINT('',(0.785398163398,35.585988844545));
#202 = CARTESIAN_POINT('',(0.981747704245,34.552188930487));
#203 = CARTESIAN_POINT('',(1.178097245096,33.370945264936));
#204 = CARTESIAN_POINT('',(1.374446785946,32.115972483502));
#205 = CARTESIAN_POINT('',(1.570796326795,30.861));
#206 = ( GEOMETRIC_REPRESENTATION_CONTEXT(2) 
PARAMETRIC_REPRESENTATION_CONTEXT() REPRESENTATION_CONTEXT('2D SPACE',''
  ) );
#207 = PCURVE('',#208,#213);
#208 = CYLINDRICAL_SURFACE('',#209,15.4305);
#209 = AXIS2_PLACEMENT_3D('',#210,#211,#212);
#210 = CARTESIAN_POINT('',(0.,0.,0.));
#211 = DIRECTION('',(1.,0.,0.));
#212 = DIRECTION('',(-0.,0.,1.));
#213 = DEFINITIONAL_REPRESENTATION('',(#214),#245);
#214 = B_SPLINE_CURVE_WITH_KNOTS('',8,(#215,#216,#217,#218,#219,#220,
    #221,#222,#223,#224,#225,#226,#227,#228,#229,#230,#231,#232,#233,
    #234,#235,#236,#237,#238,#239,#240,#241,#242,#243,#244),
  .UNSPECIFIED.,.F.,.F.,(9,7,7,7,9),(4.712388980385,6.28318530718,
    7.461282552276,9.22842841992,10.995574287564),.UNSPECIFIED.);
#215 = CARTESIAN_POINT('',(0.,23.368));
#216 = CARTESIAN_POINT('',(0.196349540849,24.622972483502));
#217 = CARTESIAN_POINT('',(0.392699081695,25.877945264946));
#218 = CARTESIAN_POINT('',(0.589048622556,27.059188930421));
#219 = CARTESIAN_POINT('',(0.785398163377,28.092988844499));
#220 = CARTESIAN_POINT('',(0.981747704246,28.91467845992));
#221 = CARTESIAN_POINT('',(1.178097245091,29.477906938638));
#222 = CARTESIAN_POINT('',(1.374446785946,29.759522374198));
#223 = CARTESIAN_POINT('',(1.718058482432,29.759522374198));
#224 = CARTESIAN_POINT('',(1.865320638068,29.601113273667));
#225 = CARTESIAN_POINT('',(2.01258279371,29.284298974917));
#226 = CARTESIAN_POINT('',(2.159844949344,28.816396399347));
#227 = CARTESIAN_POINT('',(2.307107104978,28.212082547006));
#228 = CARTESIAN_POINT('',(2.454369260619,27.492473950705));
#229 = CARTESIAN_POINT('',(2.601631416254,26.683512263726));
#230 = CARTESIAN_POINT('',(2.969786805347,24.509555904902));
#231 = CARTESIAN_POINT('',(3.190680038807,23.068785322443));
#232 = CARTESIAN_POINT('',(3.411573272227,21.58861095884));
#233 = CARTESIAN_POINT('',(3.63246650573,20.180172535385));
#234 = CARTESIAN_POINT('',(3.853359739136,18.953827072898));
#235 = CARTESIAN_POINT('',(4.07425297263,17.999734838104));
#236 = CARTESIAN_POINT('',(4.29514620608,17.374726045187));
#237 = CARTESIAN_POINT('',(4.736932672991,16.82385182685));
#238 = CARTESIAN_POINT('',(4.957825906441,16.897986096514));
#239 = CARTESIAN_POINT('',(5.1787191399,17.34216518459));
#240 = CARTESIAN_POINT('',(5.399612373302,18.140505278046));
#241 = CARTESIAN_POINT('',(5.620505606807,19.237446849776));
#242 = CARTESIAN_POINT('',(5.841398840264,20.544311130671));
#243 = CARTESIAN_POINT('',(6.062292073724,21.95615595606));
#244 = CARTESIAN_POINT('',(6.28318530718,23.368));
#245 = ( GEOMETRIC_REPRESENTATION_CONTEXT(2) 
PARAMETRIC_REPRESENTATION_CONTEXT() REPRESENTATION_CONTEXT('2D SPACE',''
  ) );
#246 = ORIENTED_EDGE('',*,*,#247,.T.);
#247 = EDGE_CURVE('',#186,#184,#248,.T.);
#248 = SURFACE_CURVE('',#249,(#254,#281),.PCURVE_S1.);
#249 = ELLIPSE('',#250,16.701852846612,15.4305);
#250 = AXIS2_PLACEMENT_3D('',#251,#252,#253);
#251 = CARTESIAN_POINT('',(23.368,0.,0.));
#252 = DIRECTION('',(0.923879532511,0.382683432365,0.));
#253 = DIRECTION('',(0.382683432365,-0.923879532511,0.));
#254 = PCURVE('',#164,#255);
#255 = DEFINITIONAL_REPRESENTATION('',(#256),#280);
#256 = B_SPLINE_CURVE_WITH_KNOTS('',8,(#257,#258,#259,#260,#261,#262,
    #263,#264,#265,#266,#267,#268,#269,#270,#271,#272,#273,#274,#275,
    #276,#277,#278,#279),.UNSPECIFIED.,.F.,.F.,(9,7,7,9),(4.712388980385
    ,5.890486225481,7.657632093125,9.424777960769),.UNSPECIFIED.);
#257 = CARTESIAN_POINT('',(1.570796326795,30.861));
#258 = CARTESIAN_POINT('',(1.718058482432,29.919770637373));
#259 = CARTESIAN_POINT('',(1.865320638069,28.978541619211));
#260 = CARTESIAN_POINT('',(2.012582793706,28.068414108018));
#261 = CARTESIAN_POINT('',(2.159844949343,27.220497915045));
#262 = CARTESIAN_POINT('',(2.30710710498,26.463728823177));
#263 = CARTESIAN_POINT('',(2.454369260617,25.822739857077));
#264 = CARTESIAN_POINT('',(2.601631416254,25.316196180023));
#265 = CARTESIAN_POINT('',(2.969786805347,24.415713972191));
#266 = CARTESIAN_POINT('',(3.190680038798,24.204713530678));
#267 = CARTESIAN_POINT('',(3.411573272269,24.363169614583));
#268 = CARTESIAN_POINT('',(3.632466505698,24.89699429432));
#269 = CARTESIAN_POINT('',(3.853359739181,25.77149094246));
#270 = CARTESIAN_POINT('',(4.074252972621,26.914177463257));
#271 = CARTESIAN_POINT('',(4.29514620608,28.229359985323));
#272 = CARTESIAN_POINT('',(4.736932672991,30.998791698366));
#273 = CARTESIAN_POINT('',(4.957825906449,32.453042422186));
#274 = CARTESIAN_POINT('',(5.178719139878,33.873862401782));
#275 = CARTESIAN_POINT('',(5.399612373378,35.151094047553));
#276 = CARTESIAN_POINT('',(5.620505606787,36.1832697928));
#277 = CARTESIAN_POINT('',(5.841398840272,36.896102331752));
#278 = CARTESIAN_POINT('',(6.062292073724,37.252522374198));
#279 = CARTESIAN_POINT('',(6.28318530718,37.252522374198));
#280 = ( GEOMETRIC_REPRESENTATION_CONTEXT(2) 
PARAMETRIC_REPRESENTATION_CONTEXT() REPRESENTATION_CONTEXT('2D SPACE',''
  ) );
#281 = PCURVE('',#208,#282);
#282 = DEFINITIONAL_REPRESENTATION('',(#283),#314);
#283 = B_SPLINE_CURVE_WITH_KNOTS('',8,(#284,#285,#286,#287,#288,#289,
    #290,#291,#292,#293,#294,#295,#296,#297,#298,#299,#300,#301,#302,
    #303,#304,#305,#306,#307,#308,#309,#310,#311,#312,#313),
  .UNSPECIFIED.,.F.,.F.,(9,7,7,7,9),(4.712388980385,6.28318530718,
    7.461282552276,9.22842841992,10.995574287564),.UNSPECIFIED.);
#284 = CARTESIAN_POINT('',(0.,23.368));
#285 = CARTESIAN_POINT('',(0.196349540849,24.622972483502));
#286 = CARTESIAN_POINT('',(0.392699081695,25.877945264946));
#287 = CARTESIAN_POINT('',(0.589048622556,27.059188930421));
#288 = CARTESIAN_POINT('',(0.785398163377,28.092988844499));
#289 = CARTESIAN_POINT('',(0.981747704246,28.91467845992));
#290 = CARTESIAN_POINT('',(1.178097245091,29.477906938638));
#291 = CARTESIAN_POINT('',(1.374446785946,29.759522374198));
#292 = CARTESIAN_POINT('',(1.718058482432,29.759522374198));
#293 = CARTESIAN_POINT('',(1.865320638068,29.601113273667));
#294 = CARTESIAN_POINT('',(2.01258279371,29.284298974917));
#295 = CARTESIAN_POINT('',(2.159844949344,28.816396399347));
#296 = CARTESIAN_POINT('',(2.307107104978,28.212082547006));
#297 = CARTESIAN_POINT('',(2.454369260619,27.492473950705));
#298 = CARTESIAN_POINT('',(2.601631416254,26.683512263726));
#299 = CARTESIAN_POINT('',(2.969786805347,24.509555904902));
#300 = CARTESIAN_POINT('',(3.190680038807,23.068785322443));
#301 = CARTESIAN_POINT('',(3.411573272227,21.58861095884));
#302 = CARTESIAN_POINT('',(3.63246650573,20.180172535385));
#303 = CARTESIAN_POINT('',(3.853359739136,18.953827072898));
#304 = CARTESIAN_POINT('',(4.07425297263,17.999734838104));
#305 = CARTESIAN_POINT('',(4.29514620608,17.374726045187));
#306 = CARTESIAN_POINT('',(4.736932672991,16.82385182685));
#307 = CARTESIAN_POINT('',(4.957825906441,16.897986096514));
#308 = CARTESIAN_POINT('',(5.1787191399,17.34216518459));
#309 = CARTESIAN_POINT('',(5.399612373302,18.140505278046));
#310 = CARTESIAN_POINT('',(5.620505606807,19.237446849776));
#311 = CARTESIAN_POINT('',(5.841398840264,20.544311130671));
#312 = CARTESIAN_POINT('',(6.062292073724,21.95615595606));
#313 = CARTESIAN_POINT('',(6.28318530718,23.368));
#314 = ( GEOMETRIC_REPRESENTATION_CONTEXT(2) 
PARAMETRIC_REPRESENTATION_CONTEXT() REPRESENTATION_CONTEXT('2D SPACE',''
  ) );
#315 = ORIENTED_EDGE('',*,*,#316,.T.);
#316 = EDGE_CURVE('',#184,#148,#317,.T.);
#317 = SEAM_CURVE('',#318,(#322,#329),.PCURVE_S1.);
#318 = LINE('',#319,#320);
#319 = CARTESIAN_POINT('',(-9.365033561297,-10.91101118709,
    -3.779382486849E-15));
#320 = VECTOR('',#321,1.);
#321 = DIRECTION('',(0.707106781187,0.707106781187,-1.101497328414E-32)
  );
#322 = PCURVE('',#164,#323);
#323 = DEFINITIONAL_REPRESENTATION('',(#324),#328);
#324 = LINE('',#325,#326);
#325 = CARTESIAN_POINT('',(0.,-0.));
#326 = VECTOR('',#327,1.);
#327 = DIRECTION('',(0.,1.));
#328 = ( GEOMETRIC_REPRESENTATION_CONTEXT(2) 
PARAMETRIC_REPRESENTATION_CONTEXT() REPRESENTATION_CONTEXT('2D SPACE',''
  ) );
#329 = PCURVE('',#164,#330);
#330 = DEFINITIONAL_REPRESENTATION('',(#331),#335);
#331 = LINE('',#332,#333);
#332 = CARTESIAN_POINT('',(6.28318530718,-0.));
#333 = VECTOR('',#334,1.);
#334 = DIRECTION('',(0.,1.));
#335 = ( GEOMETRIC_REPRESENTATION_CONTEXT(2) 
PARAMETRIC_REPRESENTATION_CONTEXT() REPRESENTATION_CONTEXT('2D SPACE',''
  ) );
#336 = ORIENTED_EDGE('',*,*,#147,.F.);
#337 = ORIENTED_EDGE('',*,*,#316,.F.);
#338 = ADVANCED_FACE('',(#339),#208,.T.);
#339 = FACE_BOUND('',#340,.T.);
#340 = EDGE_LOOP('',(#341,#364,#365,#366,#367));
#341 = ORIENTED_EDGE('',*,*,#342,.T.);
#342 = EDGE_CURVE('',#343,#186,#345,.T.);
#343 = VERTEX_POINT('',#344);
#344 = CARTESIAN_POINT('',(0.,3.779382486849E-15,15.4305));
#345 = SEAM_CURVE('',#346,(#350,#357),.PCURVE_S1.);
#346 = LINE('',#347,#348);
#347 = CARTESIAN_POINT('',(0.,3.779382486849E-15,15.4305));
#348 = VECTOR('',#349,1.);
#349 = DIRECTION('',(1.,0.,0.));
#350 = PCURVE('',#208,#351);
#351 = DEFINITIONAL_REPRESENTATION('',(#352),#356);
#352 = LINE('',#353,#354);
#353 = CARTESIAN_POINT('',(6.28318530718,-0.));
#354 = VECTOR('',#355,1.);
#355 = DIRECTION('',(0.,1.));
#356 = ( GEOMETRIC_REPRESENTATION_CONTEXT(2) 
PARAMETRIC_REPRESENTATION_CONTEXT() REPRESENTATION_CONTEXT('2D SPACE',''
  ) );
#357 = PCURVE('',#208,#358);
#358 = DEFINITIONAL_REPRESENTATION('',(#359),#363);
#359 = LINE('',#360,#361);
#360 = CARTESIAN_POINT('',(0.,-0.));
#361 = VECTOR('',#362,1.);
#362 = DIRECTION('',(0.,1.));
#363 = ( GEOMETRIC_REPRESENTATION_CONTEXT(2) 
PARAMETRIC_REPRESENTATION_CONTEXT() REPRESENTATION_CONTEXT('2D SPACE',''
  ) );
#364 = ORIENTED_EDGE('',*,*,#183,.F.);
#365 = ORIENTED_EDGE('',*,*,#247,.F.);
#366 = ORIENTED_EDGE('',*,*,#342,.F.);
#367 = ORIENTED_EDGE('',*,*,#368,.T.);
#368 = EDGE_CURVE('',#343,#343,#369,.T.);
#369 = SURFACE_CURVE('',#370,(#375,#382),.PCURVE_S1.);
#370 = CIRCLE('',#371,15.4305);
#371 = AXIS2_PLACEMENT_3D('',#372,#373,#374);
#372 = CARTESIAN_POINT('',(0.,0.,0.));
#373 = DIRECTION('',(1.,0.,0.));
#374 = DIRECTION('',(-0.,0.,1.));
#375 = PCURVE('',#208,#376);
#376 = DEFINITIONAL_REPRESENTATION('',(#377),#381);
#377 = LINE('',#378,#379);
#378 = CARTESIAN_POINT('',(0.,0.));
#379 = VECTOR('',#380,1.);
#380 = DIRECTION('',(1.,0.));
#381 = ( GEOMETRIC_REPRESENTATION_CONTEXT(2) 
PARAMETRIC_REPRESENTATION_CONTEXT() REPRESENTATION_CONTEXT('2D SPACE',''
  ) );
#382 = PCURVE('',#383,#388);
#383 = PLANE('',#384);
#384 = AXIS2_PLACEMENT_3D('',#385,#386,#387);
#385 = CARTESIAN_POINT('',(0.,0.,0.));
#386 = DIRECTION('',(1.,0.,0.));
#387 = DIRECTION('',(-0.,0.,1.));
#388 = DEFINITIONAL_REPRESENTATION('',(#389),#393);
#389 = CIRCLE('',#390,15.4305);
#390 = AXIS2_PLACEMENT_2D('',#391,#392);
#391 = CARTESIAN_POINT('',(0.,0.));
#392 = DIRECTION('',(1.,0.));
#393 = ( GEOMETRIC_REPRESENTATION_CONTEXT(2) 
PARAMETRIC_REPRESENTATION_CONTEXT() REPRESENTATION_CONTEXT('2D SPACE',''
  ) );
#394 = ADVANCED_FACE('',(#395,#398),#383,.F.);
#395 = FACE_BOUND('',#396,.F.);
#396 = EDGE_LOOP('',(#397));
#397 = ORIENTED_EDGE('',*,*,#368,.T.);
#398 = FACE_BOUND('',#399,.F.);
#399 = EDGE_LOOP('',(#400));
#400 = ORIENTED_EDGE('',*,*,#401,.F.);
#401 = EDGE_CURVE('',#402,#402,#404,.T.);
#402 = VERTEX_POINT('',#403);
#403 = CARTESIAN_POINT('',(0.,2.830648611549E-15,11.557));
#404 = SURFACE_CURVE('',#405,(#410,#417),.PCURVE_S1.);
#405 = CIRCLE('',#406,11.557);
#406 = AXIS2_PLACEMENT_3D('',#407,#408,#409);
#407 = CARTESIAN_POINT('',(0.,0.,0.));
#408 = DIRECTION('',(1.,0.,0.));
#409 = DIRECTION('',(-0.,0.,1.));
#410 = PCURVE('',#383,#411);
#411 = DEFINITIONAL_REPRESENTATION('',(#412),#416);
#412 = CIRCLE('',#413,11.557);
#413 = AXIS2_PLACEMENT_2D('',#414,#415);
#414 = CARTESIAN_POINT('',(0.,0.));
#415 = DIRECTION('',(1.,0.));
#416 = ( GEOMETRIC_REPRESENTATION_CONTEXT(2) 
PARAMETRIC_REPRESENTATION_CONTEXT() REPRESENTATION_CONTEXT('2D SPACE',''
  ) );
#417 = PCURVE('',#418,#423);
#418 = CYLINDRICAL_SURFACE('',#419,11.557);
#419 = AXIS2_PLACEMENT_3D('',#420,#421,#422);
#420 = CARTESIAN_POINT('',(-8.89,0.,0.));
#421 = DIRECTION('',(1.,0.,0.));
#422 = DIRECTION('',(-0.,0.,1.));
#423 = DEFINITIONAL_REPRESENTATION('',(#424),#428);
#424 = LINE('',#425,#426);
#425 = CARTESIAN_POINT('',(0.,8.89));
#426 = VECTOR('',#427,1.);
#427 = DIRECTION('',(1.,0.));
#428 = ( GEOMETRIC_REPRESENTATION_CONTEXT(2) 
PARAMETRIC_REPRESENTATION_CONTEXT() REPRESENTATION_CONTEXT('2D SPACE',''
  ) );
#429 = ADVANCED_FACE('',(#430),#418,.T.);
#430 = FACE_BOUND('',#431,.T.);
#431 = EDGE_LOOP('',(#432,#433,#456,#483));
#432 = ORIENTED_EDGE('',*,*,#401,.F.);
#433 = ORIENTED_EDGE('',*,*,#434,.F.);
#434 = EDGE_CURVE('',#435,#402,#437,.T.);
#435 = VERTEX_POINT('',#436);
#436 = CARTESIAN_POINT('',(-8.89,2.830648611549E-15,11.557));
#437 = SEAM_CURVE('',#438,(#442,#449),.PCURVE_S1.);
#438 = LINE('',#439,#440);
#439 = CARTESIAN_POINT('',(-8.89,2.830648611549E-15,11.557));
#440 = VECTOR('',#441,1.);
#441 = DIRECTION('',(1.,0.,0.));
#442 = PCURVE('',#418,#443);
#443 = DEFINITIONAL_REPRESENTATION('',(#444),#448);
#444 = LINE('',#445,#446);
#445 = CARTESIAN_POINT('',(6.28318530718,-0.));
#446 = VECTOR('',#447,1.);
#447 = DIRECTION('',(0.,1.));
#448 = ( GEOMETRIC_REPRESENTATION_CONTEXT(2) 
PARAMETRIC_REPRESENTATION_CONTEXT() REPRESENTATION_CONTEXT('2D SPACE',''
  ) );
#449 = PCURVE('',#418,#450);
#450 = DEFINITIONAL_REPRESENTATION('',(#451),#455);
#451 = LINE('',#452,#453);
#452 = CARTESIAN_POINT('',(0.,-0.));
#453 = VECTOR('',#454,1.);
#454 = DIRECTION('',(0.,1.));
#455 = ( GEOMETRIC_REPRESENTATION_CONTEXT(2) 
PARAMETRIC_REPRESENTATION_CONTEXT() REPRESENTATION_CONTEXT('2D SPACE',''
  ) );
#456 = ORIENTED_EDGE('',*,*,#457,.T.);
#457 = EDGE_CURVE('',#435,#435,#458,.T.);
#458 = SURFACE_CURVE('',#459,(#464,#471),.PCURVE_S1.);
#459 = CIRCLE('',#460,11.557);
#460 = AXIS2_PLACEMENT_3D('',#461,#462,#463);
#461 = CARTESIAN_POINT('',(-8.89,0.,0.));
#462 = DIRECTION('',(1.,0.,0.));
#463 = DIRECTION('',(-0.,0.,1.));
#464 = PCURVE('',#418,#465);
#465 = DEFINITIONAL_REPRESENTATION('',(#466),#470);
#466 = LINE('',#467,#468);
#467 = CARTESIAN_POINT('',(0.,0.));
#468 = VECTOR('',#469,1.);
#469 = DIRECTION('',(1.,0.));
#470 = ( GEOMETRIC_REPRESENTATION_CONTEXT(2) 
PARAMETRIC_REPRESENTATION_CONTEXT() REPRESENTATION_CONTEXT('2D SPACE',''
  ) );
#471 = PCURVE('',#472,#477);
#472 = PLANE('',#473);
#473 = AXIS2_PLACEMENT_3D('',#474,#475,#476);
#474 = CARTESIAN_POINT('',(-8.89,0.,0.));
#475 = DIRECTION('',(1.,0.,0.));
#476 = DIRECTION('',(-0.,0.,1.));
#477 = DEFINITIONAL_REPRESENTATION('',(#478),#482);
#478 = CIRCLE('',#479,11.557);
#479 = AXIS2_PLACEMENT_2D('',#480,#481);
#480 = CARTESIAN_POINT('',(0.,0.));
#481 = DIRECTION('',(1.,0.));
#482 = ( GEOMETRIC_REPRESENTATION_CONTEXT(2) 
PARAMETRIC_REPRESENTATION_CONTEXT() REPRESENTATION_CONTEXT('2D SPACE',''
  ) );
#483 = ORIENTED_EDGE('',*,*,#434,.T.);
#484 = ADVANCED_FACE('',(#485),#472,.F.);
#485 = FACE_BOUND('',#486,.T.);
#486 = EDGE_LOOP('',(#487));
#487 = ORIENTED_EDGE('',*,*,#457,.F.);
#488 = ( GEOMETRIC_REPRESENTATION_CONTEXT(3) 
GLOBAL_UNCERTAINTY_ASSIGNED_CONTEXT((#492)) GLOBAL_UNIT_ASSIGNED_CONTEXT
((#489,#490,#491)) REPRESENTATION_CONTEXT('Context #1',
  '3D Context with UNIT and UNCERTAINTY') );
#489 = ( LENGTH_UNIT() NAMED_UNIT(*) SI_UNIT(.MILLI.,.METRE.) );
#490 = ( NAMED_UNIT(*) PLANE_ANGLE_UNIT() SI_UNIT($,.RADIAN.) );
#491 = ( NAMED_UNIT(*) SI_UNIT($,.STERADIAN.) SOLID_ANGLE_UNIT() );
#492 = UNCERTAINTY_MEASURE_WITH_UNIT(LENGTH_MEASURE(1.E-07),#489,
  'distance_accuracy_value','confusion accuracy');
#493 = PRODUCT_RELATED_PRODUCT_CATEGORY('part',$,(#7));
ENDSEC;
END-ISO-10303-21;
