<?xml version="1.0" encoding="UTF-8"?>
<svg xmlns="http://www.w3.org/2000/svg" version="1.1" width="400" height="400">
<g id="M85049-90_N19F02-drawing-contents-start">
<!-- Finish colors approximated from https://d38999.federalconnectors.com/ -->
<!-- Knurl and section details from typical M85049/88 /89 /90 hardware -->
<defs>
<pattern id="m85049-90_n19f02-knurl-diamond" width="8" height="8" patternUnits="userSpaceOnUse">
  <path d="M0,8 L8,0 M-2,2 L2,-2 M6,10 L10,6" stroke="#5C5D5A" stroke-width="0.85" fill="none"/>
  <path d="M0,0 L8,8 M-2,6 L2,10 M6,-2 L10,2" stroke="#5C5D5A" stroke-width="0.85" fill="none"/>
</pattern>
<pattern id="m85049-90_n19f02-knurl-diamond-nut" width="8" height="8" patternUnits="userSpaceOnUse">
  <path d="M0,8 L8,0 M-2,2 L2,-2 M6,10 L10,6" stroke="#5C5D5A" stroke-width="0.85" fill="none"/>
  <path d="M0,0 L8,8 M-2,6 L2,10 M6,-2 L10,2" stroke="#5C5D5A" stroke-width="0.85" fill="none"/>
</pattern>
<pattern id="m85049-90_n19f02-knurl-straight" width="3.4" height="8" patternUnits="userSpaceOnUse">
  <line x1="1.1" y1="0" x2="1.1" y2="8" stroke="#5C5D5A" stroke-width="1.15"/>
</pattern>
<pattern id="m85049-90_n19f02-knurl-straight-v" width="8" height="3.4" patternUnits="userSpaceOnUse">
  <line x1="0" y1="1.1" x2="8" y2="1.1" stroke="#5C5D5A" stroke-width="1.15"/>
</pattern>
</defs>
<polygon points="-33.60,-45.60 0.00,-45.60 87.17,-45.60 87.17,-142.06 59.81,-142.06 59.81,-180.00 205.73,-180.00 205.73,-142.06 178.37,-142.06 178.37,45.60 0.00,45.60 -33.60,45.60" fill="#A3A4A0" stroke="#222222" stroke-width="1.5"/>
<rect x="59.81" y="-180.00" width="145.92" height="37.94" fill="#6E6F6C" stroke="none"/>
<rect x="59.81" y="-168.62" width="145.92" height="26.56" fill="url(#m85049-90_n19f02-knurl-straight-v)" stroke="none" opacity="0.55"/>
<rect x="-29.57" y="-45.60" width="25.57" height="91.20" fill="url(#m85049-90_n19f02-knurl-diamond)" stroke="none" opacity="0.55"/>
<rect x="-28.60" y="-41.95" width="1.40" height="83.90" fill="#4A4B48" stroke="none"/>
<rect x="-25.40" y="-41.95" width="1.40" height="83.90" fill="#4A4B48" stroke="none"/>
<rect x="-33.60" y="-25.08" width="4.00" height="50.16" fill="#4A4B48" stroke="none"/>
<rect x="99.67" y="-176.00" width="66.19" height="1.60" fill="#C62828" stroke="none"/>
<rect x="102.12" y="-180.00" width="61.29" height="4.00" fill="#4A4B48" stroke="none"/>
<line x1="87.17" y1="-45.60" x2="178.37" y2="45.60" stroke="#000000" stroke-width="1" opacity="0.05"/>
<polygon points="-33.60,-45.60 0.00,-45.60 87.17,-45.60 87.17,-142.06 59.81,-142.06 59.81,-180.00 205.73,-180.00 205.73,-142.06 178.37,-142.06 178.37,45.60 0.00,45.60 -33.60,45.60" fill="none" stroke="#222222" stroke-width="1.5"/>
</g>
<g id="M85049-90_N19F02-drawing-contents-end">
</g>
  <g id="output csys locations">
    <g id="connector">
      <circle cx="132.77" cy="-180.00" r="4" fill="black"/>
      <line x1="132.77" y1="-180.00" x2="132.77" y2="-204.00" stroke="red" stroke-width="2"/>
      <polygon points="132.77,-204.00 129.77,-198.00 135.77,-198.00" fill="red"/>
      <line x1="132.77" y1="-180.00" x2="108.77" y2="-180.00" stroke="green" stroke-width="2"/>
      <polygon points="108.77,-180.00 114.77,-177.00 114.77,-183.00" fill="green"/>
    </g>
  </g>
</svg>
